<svg width="92" height="32" viewBox="0 0 92 32" fill="none" xmlns="http://www.w3.org/2000/svg">
<path d="M16.0815 25.6894C16.1077 22.7523 15.428 20.3638 14.5635 20.3545C13.699 20.3453 12.9769 22.7188 12.9507 25.6559C12.9245 28.5931 13.6041 30.9816 14.4686 30.9908C15.3332 31.0001 16.0553 28.6266 16.0815 25.6894Z" fill="#222222"/>
<path d="M11.0675 25.0218C12.539 22.5665 13.1459 20.1546 12.4232 19.6347C11.7005 19.1147 9.92178 20.6836 8.45036 23.1389C6.97886 25.5943 6.3719 28.0061 7.09458 28.5261C7.81731 29.046 9.59598 27.4771 11.0675 25.0218Z" fill="#222222"/>
<path d="M7.17263 21.4999C9.62212 20.3062 11.3229 18.6368 10.9715 17.7713C10.6202 16.9057 8.34967 17.1718 5.90017 18.3656C3.45071 19.5594 1.74989 21.2287 2.10127 22.0942C2.45265 22.9598 4.72317 22.6937 7.17263 21.4999Z" fill="#222222"/>
<path d="M10.6775 15.3441C10.809 14.4079 8.7677 13.2867 6.11807 12.8398C3.46841 12.393 1.21383 12.7898 1.08231 13.7261C0.950785 14.6623 2.99212 15.7835 5.64177 16.2303C8.29141 16.6772 10.546 16.2804 10.6775 15.3441Z" fill="#222222"/>
<path d="M11.6288 13.1129C12.2014 12.4032 11.037 10.2509 9.02831 8.3058C7.01956 6.36065 4.92699 5.35921 4.35445 6.06901C3.7819 6.77881 4.94618 8.93109 6.95496 10.8762C8.96369 12.8214 11.0563 13.8228 11.6288 13.1129Z" fill="#222222"/>
<path d="M13.5234 11.8093C14.3553 11.5514 14.438 9.05105 13.708 6.22478C12.9781 3.39848 11.712 1.3164 10.8801 1.57433C10.0481 1.83226 9.96548 4.33251 10.6954 7.15884C11.4254 9.98505 12.6915 12.0672 13.5234 11.8093Z" fill="#222222"/>
<path d="M18.6678 7.24698C19.4485 4.43699 19.4109 1.93544 18.5838 1.65959C17.7566 1.38375 16.4532 3.43805 15.6725 6.24803C14.8919 9.05801 14.9295 11.5595 15.7567 11.8354C16.5838 12.1112 17.8872 10.057 18.6678 7.24698Z" fill="#222222"/>
<path d="M22.3437 11.0441C24.3868 9.14232 25.5893 7.01538 25.0294 6.29348C24.4697 5.57156 22.3596 6.52802 20.3166 8.42976C18.2735 10.3315 17.0711 12.4584 17.6308 13.1803C18.1906 13.9022 20.3006 12.9458 22.3437 11.0441Z" fill="#222222"/>
<path d="M23.5591 16.417C26.2163 16.0275 28.2774 14.9507 28.1628 14.0117C28.0482 13.0728 25.8012 12.6275 23.144 13.0169C20.4869 13.4064 18.4257 14.4832 18.5403 15.4222C18.655 16.3611 20.902 16.8065 23.5591 16.417Z" fill="#222222"/>
<path d="M26.9868 22.362C27.3537 21.5043 25.6833 19.7985 23.2558 18.552C20.8283 17.3056 18.563 16.9905 18.1962 17.8482C17.8293 18.706 19.4996 20.4118 21.9272 21.6583C24.3546 22.9047 26.6199 23.2198 26.9868 22.362Z" fill="#222222"/>
<path d="M21.8808 28.6911C22.6127 28.1868 22.0492 25.7623 20.6223 23.2757C19.1953 20.7891 17.4451 19.1821 16.7132 19.6863C15.9813 20.1905 16.5448 22.6151 17.9717 25.1016C19.3988 27.5883 21.1489 29.1953 21.8808 28.6911Z" fill="#222222"/>
<path d="M38.881 20.0162L37.8296 24.0002H35.2229L40.0419 7.44023H43.1962L48.0153 24.0002H45.321L44.2696 20.0162H38.881ZM43.7439 17.8562L41.5753 9.60023L39.4067 17.8562H43.7439ZM57.601 23.3282C57.1629 23.6322 56.6518 23.8722 56.0677 24.0482C55.4836 24.2242 54.8702 24.3122 54.2277 24.3122C52.9134 24.3122 51.8985 23.9442 51.1829 23.2082C50.4674 22.4562 50.1096 21.4402 50.1096 20.1602V13.2962H47.5467V11.3282H50.1096V8.49623L52.5629 8.18423V11.3282H56.4839L56.1991 13.2962H52.5629V20.1362C52.5629 20.8242 52.7236 21.3362 53.0448 21.6722C53.3661 21.9922 53.8772 22.1522 54.5782 22.1522C55.3521 22.1522 56.0677 21.9522 56.7248 21.5522L57.601 23.3282ZM63.9668 20.5442C63.9668 21.6162 64.5509 22.1522 65.7191 22.1522C66.3033 22.1522 66.9166 22.0082 67.5592 21.7202L68.1725 23.5922C67.3693 24.0722 66.3763 24.3122 65.1934 24.3122C64.0398 24.3122 63.1344 23.9602 62.4772 23.2562C61.8347 22.5362 61.5134 21.5522 61.5134 20.3042V8.20823H58.0306V6.24023H63.9668V20.5442ZM78.6783 20.9042C78.6783 21.3842 78.744 21.7442 78.8754 21.9842C79.0069 22.2082 79.2332 22.3762 79.5545 22.4882L78.985 24.3122C77.7729 24.1522 76.977 23.5682 76.5973 22.5602C76.1739 23.1362 75.6408 23.5762 74.9983 23.8802C74.3704 24.1682 73.6767 24.3122 72.9172 24.3122C71.7489 24.3122 70.8216 23.9522 70.1353 23.2322C69.4489 22.5122 69.1058 21.5602 69.1058 20.3762C69.1058 19.0482 69.5804 18.0242 70.5296 17.3042C71.4934 16.5842 72.8515 16.2242 74.604 16.2242H76.2469V15.4082C76.2469 14.6082 76.0278 14.0242 75.5897 13.6562C75.1516 13.2882 74.5164 13.1042 73.684 13.1042C73.2751 13.1042 72.8004 13.1602 72.2601 13.2722C71.7197 13.3842 71.1721 13.5442 70.6172 13.7522L70.0039 11.8562C71.3912 11.2802 72.742 10.9922 74.0564 10.9922C75.5897 10.9922 76.7434 11.3602 77.5173 12.0962C78.2913 12.8322 78.6783 13.8802 78.6783 15.2402V20.9042ZM73.6402 22.3442C74.1513 22.3442 74.6405 22.2002 75.1078 21.9122C75.5897 21.6242 75.9694 21.2242 76.2469 20.7122V17.9042H74.8888C73.7789 17.9042 72.9683 18.1122 72.4572 18.5282C71.9461 18.9282 71.6905 19.5122 71.6905 20.2802C71.6905 20.9522 71.8512 21.4642 72.1724 21.8162C72.5083 22.1682 72.9975 22.3442 73.6402 22.3442ZM84.9781 22.2722C85.7521 22.2722 86.3581 22.1202 86.7962 21.8162C87.2489 21.5122 87.4753 21.0962 87.4753 20.5682C87.4753 20.2002 87.4095 19.9042 87.2781 19.6802C87.1467 19.4402 86.8838 19.2242 86.4895 19.0322C86.0952 18.8242 85.5038 18.6082 84.7153 18.3842C83.4448 18.0322 82.4883 17.5842 81.8457 17.0402C81.2178 16.4802 80.9038 15.6802 80.9038 14.6402C80.9038 13.5362 81.32 12.6562 82.1524 12.0002C82.9848 11.3282 84.1092 10.9922 85.5257 10.9922C87.2343 10.9922 88.7019 11.4802 89.9286 12.4562L88.8772 14.1602C87.8403 13.4082 86.7451 13.0322 85.5914 13.0322C84.1311 13.0322 83.401 13.4962 83.401 14.4242C83.401 14.7442 83.4813 15.0082 83.6419 15.2162C83.8172 15.4242 84.1092 15.6242 84.5181 15.8162C84.927 15.9922 85.533 16.2002 86.3362 16.4402C87.5921 16.8242 88.5267 17.2962 89.14 17.8562C89.768 18.4162 90.0819 19.2562 90.0819 20.3762C90.0819 21.6722 89.5927 22.6562 88.6143 23.3282C87.6359 23.9842 86.4238 24.3122 84.9781 24.3122C83.0651 24.3122 81.4806 23.7202 80.2248 22.5362L81.5172 20.9042C81.9991 21.3202 82.5321 21.6562 83.1162 21.9122C83.7149 22.1522 84.3356 22.2722 84.9781 22.2722Z" fill="#222222"/>
</svg>
