<svg width="92" height="32" viewBox="0 0 92 32" fill="none" xmlns="http://www.w3.org/2000/svg">
<g clip-path="url(#clip0_11157_1188)">
<path fill-rule="evenodd" clip-rule="evenodd" d="M16 32C24.8366 32 32 24.8366 32 16C32 7.16344 24.8366 0 16 0C7.16343 0 0 7.16344 0 16C0 24.8366 7.16343 32 16 32ZM18.4696 12.3621C19.8334 10.9982 19.8334 8.78688 18.4696 7.42293C17.1057 6.05902 14.8944 6.05902 13.5305 7.42293C12.1666 8.78688 12.1666 10.9982 13.5305 12.3621L16 14.8316L18.4696 12.3621ZM19.638 18.4696C21.0019 19.8335 23.2132 19.8335 24.5771 18.4696C25.941 17.1057 25.941 14.8944 24.5771 13.5305C23.2132 12.1666 21.0019 12.1666 19.638 13.5305L17.1685 16.0001L19.638 18.4696ZM18.4696 24.5771C19.8334 23.2132 19.8334 21.0019 18.4696 19.638L16 17.1685L13.5305 19.638C12.1666 21.0019 12.1666 23.2132 13.5305 24.5771C14.8944 25.941 17.1057 25.941 18.4696 24.5771ZM7.4229 18.4696C6.05903 17.1057 6.05903 14.8944 7.4229 13.5305C8.78688 12.1666 10.9982 12.1666 12.3621 13.5305L14.8316 16.0001L12.3621 18.4696C10.9982 19.8335 8.78688 19.8335 7.4229 18.4696Z" fill="#222222"/>
<path d="M47.5439 24.3357C46.7759 24.3357 46.0959 24.1837 45.5039 23.8797C44.9279 23.5597 44.4559 23.0957 44.0879 22.4877C43.7199 21.8637 43.4639 21.0957 43.3199 20.1837H42.9599L42.9119 23.9997H39.6719V18.4077V6.8877H43.5359V10.9197C43.5359 11.3197 43.5119 11.7437 43.4639 12.1917C43.4159 12.6397 43.3519 13.1117 43.2719 13.6077C43.1919 14.0877 43.0959 14.5917 42.9839 15.1197H43.4399C43.6319 14.1917 43.9119 13.4317 44.2799 12.8397C44.6479 12.2317 45.1119 11.7757 45.6719 11.4717C46.2319 11.1677 46.8879 11.0157 47.6399 11.0157C48.6479 11.0157 49.5199 11.2797 50.2559 11.8077C51.0079 12.3197 51.5919 13.0717 52.0079 14.0637C52.4239 15.0397 52.6319 16.2397 52.6319 17.6637C52.6319 19.0877 52.4159 20.2957 51.9839 21.2877C51.5679 22.2797 50.9759 23.0397 50.2079 23.5677C49.4559 24.0797 48.5679 24.3357 47.5439 24.3357ZM46.1279 21.2157C46.6399 21.2157 47.0799 21.0717 47.4479 20.7837C47.8319 20.4797 48.1199 20.0637 48.3119 19.5357C48.5199 18.9917 48.6239 18.3837 48.6239 17.7117C48.6239 17.0077 48.5279 16.3917 48.3359 15.8637C48.1439 15.3357 47.8639 14.9197 47.4959 14.6157C47.1439 14.3117 46.7039 14.1597 46.1759 14.1597C45.8719 14.1597 45.5839 14.2157 45.3119 14.3277C45.0399 14.4397 44.7919 14.5997 44.5679 14.8077C44.3599 14.9997 44.1759 15.2317 44.0159 15.5037C43.8559 15.7757 43.7359 16.0797 43.6559 16.4157C43.5759 16.7517 43.5359 17.1037 43.5359 17.4717V17.8557C43.5359 18.2877 43.5919 18.7037 43.7039 19.1037C43.8159 19.5037 43.9759 19.8637 44.1839 20.1837C44.4079 20.5037 44.6799 20.7597 44.9999 20.9517C45.3199 21.1277 45.6959 21.2157 46.1279 21.2157ZM57.0016 24.3357C56.2976 24.3357 55.6656 24.2077 55.1056 23.9517C54.5616 23.6957 54.1216 23.3117 53.7856 22.7997C53.4656 22.2717 53.3056 21.6157 53.3056 20.8317C53.3056 19.9837 53.4896 19.3037 53.8576 18.7917C54.2416 18.2797 54.7296 17.8877 55.3216 17.6157C55.9296 17.3277 56.5616 17.1197 57.2176 16.9917C57.8896 16.8637 58.5216 16.7517 59.1136 16.6557C59.7216 16.5597 60.1936 16.4717 60.5296 16.3917C60.8816 16.3117 61.1296 16.1917 61.2736 16.0317C61.4336 15.8717 61.5136 15.6637 61.5136 15.4077C61.5136 15.1197 61.4416 14.8717 61.2976 14.6637C61.1696 14.4397 60.9696 14.2717 60.6976 14.1597C60.4256 14.0317 60.0896 13.9677 59.6896 13.9677C59.2736 13.9677 58.8816 14.0397 58.5136 14.1837C58.1616 14.3277 57.8576 14.5597 57.6016 14.8797C57.3616 15.1837 57.2016 15.5837 57.1216 16.0797L53.7136 15.3357C53.8416 14.5517 54.0896 13.8877 54.4576 13.3437C54.8256 12.7837 55.2816 12.3277 55.8256 11.9757C56.3696 11.6237 56.9696 11.3757 57.6256 11.2317C58.2976 11.0717 59.0096 10.9917 59.7616 10.9917C60.7216 10.9917 61.5456 11.1117 62.2336 11.3517C62.9376 11.5917 63.5136 11.9597 63.9616 12.4557C64.4256 12.9357 64.7616 13.5437 64.9696 14.2797C65.1936 15.0157 65.3056 15.8797 65.3056 16.8717V18.9117C65.3056 19.4717 65.3136 20.0397 65.3296 20.6157C65.3456 21.1757 65.3616 21.7357 65.3776 22.2957C65.4096 22.8557 65.4496 23.4237 65.4976 23.9997H62.1136C62.0656 23.5517 62.0176 23.0637 61.9696 22.5357C61.9376 21.9917 61.9136 21.4237 61.8976 20.8317H61.5376C61.3776 21.4877 61.0816 22.0797 60.6496 22.6077C60.2336 23.1357 59.7136 23.5597 59.0896 23.8797C58.4816 24.1837 57.7856 24.3357 57.0016 24.3357ZM58.6816 21.5757C58.9536 21.5757 59.2416 21.5277 59.5456 21.4317C59.8496 21.3197 60.1376 21.1597 60.4096 20.9517C60.6816 20.7437 60.9216 20.4797 61.1296 20.1597C61.3376 19.8397 61.4816 19.4637 61.5616 19.0317L61.5376 17.5917L62.0896 17.6397C61.8496 17.8477 61.5616 18.0077 61.2256 18.1197C60.8896 18.2317 60.5296 18.3277 60.1456 18.4077C59.7776 18.4717 59.4096 18.5437 59.0416 18.6237C58.6736 18.6877 58.3376 18.7757 58.0336 18.8877C57.7456 18.9997 57.5136 19.1517 57.3376 19.3437C57.1776 19.5357 57.0976 19.8077 57.0976 20.1597C57.0976 20.5917 57.2416 20.9357 57.5296 21.1917C57.8336 21.4477 58.2176 21.5757 58.6816 21.5757ZM72.2937 24.3357C71.4457 24.3357 70.6697 24.2557 69.9657 24.0957C69.2617 23.9357 68.6457 23.7037 68.1177 23.3997C67.6057 23.0797 67.1897 22.6797 66.8697 22.1997C66.5657 21.7197 66.3817 21.1597 66.3177 20.5197L69.3897 19.5837C69.4697 19.9517 69.6377 20.2877 69.8937 20.5917C70.1497 20.8957 70.4937 21.1357 70.9257 21.3117C71.3577 21.4717 71.8857 21.5517 72.5097 21.5517C73.1017 21.5517 73.5737 21.4637 73.9257 21.2877C74.2937 21.1117 74.4777 20.8397 74.4777 20.4717C74.4777 20.2317 74.3897 20.0397 74.2137 19.8957C74.0377 19.7517 73.7577 19.6237 73.3737 19.5117C72.9897 19.3837 72.4937 19.2557 71.8857 19.1277C71.2137 18.9677 70.5577 18.7997 69.9177 18.6237C69.2777 18.4317 68.7017 18.1917 68.1897 17.9037C67.6777 17.5997 67.2697 17.2157 66.9657 16.7517C66.6617 16.2877 66.5097 15.7037 66.5097 14.9997C66.5097 14.1837 66.7257 13.4797 67.1577 12.8877C67.6057 12.2957 68.2377 11.8317 69.0537 11.4957C69.8857 11.1597 70.8777 10.9917 72.0297 10.9917C73.0537 10.9917 73.9737 11.1357 74.7897 11.4237C75.6057 11.6957 76.2697 12.1197 76.7817 12.6957C77.3097 13.2557 77.6217 13.9677 77.7177 14.8317L74.5497 15.6477C74.5177 15.2637 74.3897 14.9357 74.1657 14.6637C73.9417 14.3757 73.6457 14.1597 73.2777 14.0157C72.9097 13.8557 72.4777 13.7757 71.9817 13.7757C71.3897 13.7757 70.9257 13.8797 70.5897 14.0877C70.2697 14.2797 70.1097 14.5277 70.1097 14.8317C70.1097 15.0877 70.2137 15.3037 70.4217 15.4797C70.6457 15.6397 70.9657 15.7757 71.3817 15.8877C71.7977 15.9997 72.3097 16.1277 72.9177 16.2717C73.5257 16.3837 74.1257 16.5277 74.7177 16.7037C75.3257 16.8797 75.8857 17.1117 76.3977 17.3997C76.9097 17.6717 77.3177 18.0477 77.6217 18.5277C77.9257 18.9917 78.0777 19.5837 78.0777 20.3037C78.0777 21.1197 77.8537 21.8317 77.4057 22.4397C76.9577 23.0477 76.3017 23.5197 75.4377 23.8557C74.5897 24.1757 73.5417 24.3357 72.2937 24.3357ZM85.3247 24.3357C84.2207 24.3357 83.2527 24.1837 82.4207 23.8797C81.6047 23.5757 80.9167 23.1437 80.3567 22.5837C79.8129 22.0077 79.3969 21.3277 79.1089 20.5437C78.8369 19.7597 78.7009 18.8797 78.7009 17.9037C78.7009 16.9437 78.8369 16.0397 79.1089 15.1917C79.3809 14.3437 79.7809 13.6077 80.3087 12.9837C80.8527 12.3597 81.5247 11.8717 82.3247 11.5197C83.1247 11.1677 84.0367 10.9917 85.0607 10.9917C86.1007 10.9917 87.0047 11.1677 87.7727 11.5197C88.5567 11.8557 89.1967 12.3517 89.6927 13.0077C90.1887 13.6637 90.5327 14.4477 90.7247 15.3597C90.9327 16.2557 90.9807 17.2637 90.8687 18.3837L81.1967 18.4797V16.4397L88.3967 16.3437L87.3407 17.3757C87.4367 16.6077 87.3967 15.9757 87.2207 15.4797C87.0447 14.9677 86.7727 14.5917 86.4047 14.3517C86.0367 14.0957 85.6047 13.9677 85.1087 13.9677C84.5327 13.9677 84.0447 14.1197 83.6447 14.4237C83.2447 14.7277 82.9407 15.1677 82.7327 15.7437C82.5247 16.3037 82.4207 16.9917 82.4207 17.8077C82.4207 19.1037 82.6767 20.0477 83.1887 20.6397C83.7167 21.2317 84.4287 21.5277 85.3247 21.5277C85.7407 21.5277 86.0847 21.4717 86.3567 21.3597C86.6287 21.2477 86.8527 21.1037 87.0287 20.9277C87.2047 20.7357 87.3327 20.5197 87.4127 20.2797C87.5087 20.0397 87.5727 19.7917 87.6047 19.5357L91.0367 20.0877C90.9727 20.6637 90.8207 21.2077 90.5807 21.7197C90.3567 22.2157 90.0127 22.6637 89.5487 23.0637C89.1007 23.4477 88.5327 23.7597 87.8447 23.9997C87.1567 24.2237 86.3167 24.3357 85.3247 24.3357Z" fill="#222222"/>
</g>
<defs>
<clipPath id="clip0_11157_1188">
<rect width="92" height="32" fill="white"/>
</clipPath>
</defs>
</svg>
