<svg width="1311" height="552" viewBox="0 0 1311 552" fill="none" xmlns="http://www.w3.org/2000/svg">
<path d="M453.753 135.381C423.043 75.4403 360.647 34.4062 288.639 34.4062C239.551 34.4062 194.899 53.471 161.76 84.6293C151.594 94.1617 142.511 104.829 134.721 116.448C105.754 154.181 85.7652 204.14 80.3521 260.199C73.1962 334.345 93.1587 402.946 130.047 449.499C130.76 450.397 131.473 451.295 132.186 452.166C124.74 448.443 117.505 444.35 110.534 439.888C81.065 421.14 56.0062 396.055 37.2582 366.613C13.6781 329.619 4.57764e-05 285.68 4.57764e-05 238.573C4.57764e-05 106.81 106.81 0 238.574 0C333.37 0 415.28 55.2929 453.753 135.407V135.381Z" fill="url(#paint0_linear_11157_10768)"/>
<path d="M221.235 326.213C213.049 334.636 213.709 347.997 220.284 361.068C225.222 370.864 244.815 382.456 248.96 382.852C251.337 383.064 253.66 383.539 256.011 383.75C256.222 383.777 256.433 383.803 256.644 383.803C296.385 387.341 336.363 368.858 362.847 335.376C363.64 334.372 364.405 333.369 365.171 332.339C372.987 321.909 379.509 310.106 384.368 297.114C393.504 272.716 395.458 247.578 391.339 224.341C391.656 225.555 391.946 226.77 392.237 227.958C395.564 242.138 397.333 256.925 397.333 272.135C397.333 298.408 392.052 323.467 382.519 346.281C381.437 348.869 380.301 351.456 379.087 353.991C378.743 354.731 378.4 355.444 378.031 356.157C371.64 369.333 363.745 381.691 354.635 392.966C346.291 403.29 336.891 412.743 326.619 421.14C326.17 421.51 325.748 421.853 325.299 422.197C309.482 434.924 291.605 445.169 272.25 452.431C251.442 460.194 228.919 464.472 205.391 464.551C200.004 464.551 194.697 464.524 191.608 463.468C172.675 453.408 157.808 438.542 144.342 418.368C125.356 389.982 117.936 357.847 121.369 329.25C138.506 288.348 188.465 279.264 221.208 326.16L221.235 326.213Z" fill="url(#paint1_linear_11157_10768)"/>
<path d="M523.512 440.997C494.149 441.446 453.59 429.749 416.992 396.927C396.713 378.892 371.548 343.377 365.211 332.366C355.679 317.579 343.479 303.425 328.851 290.777C306.327 271.343 281.162 258.193 256.42 251.512C227.85 243.749 199.807 244.726 177.151 254.76C170.998 256.978 165.11 259.936 159.512 263.659C157.69 264.926 155.894 266.194 154.178 267.567C150.191 270.709 146.547 274.195 143.246 277.971C135.536 286.843 129.727 297.247 125.951 308.706C124.525 313.037 123.363 317.526 122.544 322.147C122.069 324.497 121.673 326.873 121.382 329.303C123.653 324.127 126.426 319.374 129.647 315.202C129.779 315.044 129.885 314.885 130.017 314.753C130.334 314.357 130.651 313.908 131.047 313.512C137.912 305.036 146.837 299.042 157.162 296.454C157.479 296.375 157.849 296.296 158.113 296.217C160.304 295.741 162.443 295.372 164.635 295.213C166.43 295.055 168.199 294.976 169.969 295.055C170.444 295.055 170.919 295.108 171.395 295.134C171.87 295.134 172.319 295.187 172.794 295.213C173.269 295.24 173.745 295.292 174.22 295.372C174.669 295.424 175.144 295.504 175.619 295.583C176.095 295.636 176.544 295.715 177.019 295.794C177.494 295.873 177.97 295.953 178.445 296.085C179.844 296.375 181.217 296.692 182.59 297.114C183.066 297.246 183.515 297.352 183.99 297.511C184.465 297.669 184.941 297.801 185.389 297.986C186.314 298.303 187.211 298.62 188.136 298.989C189.482 299.544 190.829 300.177 192.202 300.811C193.073 301.26 193.998 301.683 194.869 302.211C195.318 302.448 195.74 302.686 196.189 302.976C196.638 303.214 197.061 303.505 197.51 303.769C197.959 304.006 198.381 304.297 198.83 304.561C199.701 305.115 200.625 305.723 201.497 306.356C201.893 306.647 202.289 306.911 202.685 307.228C204.586 308.627 206.514 310.159 208.362 311.796C208.732 312.166 209.128 312.509 209.524 312.905C212.112 315.255 214.568 317.843 216.918 320.615C217.287 321.064 217.631 321.487 218 321.936C218.37 322.384 218.713 322.807 219.083 323.256C219.849 324.206 220.641 325.236 221.354 326.24C228.43 335.93 242.293 364.475 249.106 382.879C255.892 401.284 273.109 457.607 285.466 472.578C291.54 481.081 297.903 489.187 304.742 496.502C356.022 551.425 415.487 551.425 415.487 551.425C461.327 555.122 506.639 534.05 540.702 501.862C564.784 479.074 583.242 450.741 592.299 421.616C590.662 423.966 565.656 440.364 523.644 441.024L523.512 440.997Z" fill="url(#paint2_linear_11157_10768)"/>
<g style="mix-blend-mode:multiply" opacity="0.5">
<path d="M252.379 474.558C240.628 453.803 226.607 409.363 220.586 393.071C213.8 374.666 204.69 353.33 196.742 341.395C187.395 327.374 149.054 313.564 122.014 361.278C120.113 352.353 120.325 332.312 121.222 329.486C125.342 314.462 143.72 296.216 164.633 295.265C166.429 295.186 168.198 295.027 169.967 295.107C170.442 295.107 170.918 295.159 171.393 295.186C171.868 295.186 172.317 295.239 172.792 295.265C173.268 295.291 173.743 295.344 174.218 295.423C174.667 295.476 175.142 295.555 175.618 295.635C176.093 295.688 176.542 295.767 177.017 295.846C177.492 295.925 177.968 296.004 178.443 296.136C179.843 296.427 181.216 296.744 182.589 297.166C183.064 297.298 183.513 297.404 183.988 297.562C184.464 297.721 184.939 297.853 185.388 298.038C186.312 298.354 187.21 298.671 188.134 299.041C189.481 299.596 190.827 300.229 192.2 300.863C193.072 301.312 193.996 301.734 194.867 302.262C195.316 302.5 195.739 302.738 196.188 303.028C196.637 303.266 197.059 303.556 197.508 303.82C197.957 304.058 198.379 304.348 198.828 304.613C199.7 305.167 200.624 305.774 201.495 306.408C201.891 306.699 202.287 306.963 202.683 307.279C204.585 308.679 206.512 310.21 208.361 311.848C208.73 312.217 209.126 312.561 209.522 312.957C212.11 315.307 214.566 317.894 216.916 320.667C217.286 321.116 217.629 321.538 217.999 321.987C218.368 322.436 218.712 322.859 219.081 323.308C219.847 324.258 220.639 325.288 221.352 326.291C213.061 332.655 214.83 351.324 220.718 361.358C225.392 369.306 238.674 379.366 249.104 382.931C255.891 401.336 273.107 457.658 285.465 472.63" fill="#898989"/>
</g>
<path d="M169.954 295.08C168.211 295.027 166.416 295.08 164.62 295.238C166.416 295.08 168.185 295.001 169.954 295.08Z" fill="#848484"/>
<path d="M178.4 296.084C179.799 296.374 181.172 296.691 182.572 297.114C181.199 296.718 179.799 296.374 178.4 296.084Z" fill="#848484"/>
<path d="M324.741 461.091C287.826 474.716 257.354 481.027 194.641 464.339C198.047 464.524 201.48 464.603 204.939 464.603H205.415C228.942 464.55 251.466 460.273 272.273 452.483C291.629 445.248 309.505 434.976 325.322 422.249C325.771 421.906 326.193 421.536 326.642 421.193C336.914 412.796 346.314 403.343 354.659 393.018C363.769 381.743 371.664 369.385 378.054 356.209C378.424 355.496 378.767 354.757 379.11 354.044C380.325 351.509 381.46 348.921 382.543 346.333C392.075 323.519 397.356 298.46 397.356 272.187C397.356 256.977 395.587 242.19 392.26 228.011C391.97 226.796 391.679 225.581 391.362 224.393C391.362 224.34 391.362 224.288 391.336 224.261C374.674 136.886 283.945 75.8628 204.939 79.7708C191.42 80.4309 178.19 81.1702 165.463 83.8372C164.222 84.0748 163.007 84.3653 161.766 84.6293C194.905 53.471 239.557 34.4062 288.645 34.4062C360.653 34.4062 423.049 75.4403 453.759 135.381C459.726 147.844 464.664 160.862 468.44 174.408C474.144 194.819 477.18 216.339 477.18 238.573C477.18 244.593 476.969 250.587 476.52 256.502C475.517 269.916 473.404 283.013 470.288 295.714C467.093 308.653 462.869 321.195 457.667 333.21C447.527 356.658 433.743 378.125 417.029 396.952C408.605 406.458 399.416 415.251 389.593 423.305C389.461 423.437 389.303 423.543 389.144 423.675C369.947 439.307 348.269 452.034 324.768 461.144" fill="url(#paint3_linear_11157_10768)"/>
<path d="M738.733 364.186C737.353 370.67 733.628 377.568 727.512 384.926C721.442 392.33 713.118 399.044 702.633 405.16C692.148 411.277 679.823 415.922 665.659 419.003C651.495 422.13 635.676 422.682 618.293 420.75C600.91 418.819 582.193 413.208 562.143 403.965C550.83 398.676 538.781 390.169 527.422 382.719C500.704 365.244 462.672 337.559 419.399 329.006C426.573 329.466 434.206 330.431 442.392 331.949C447.911 332.961 453.705 334.248 459.683 335.766C462.534 336.548 465.478 337.33 468.513 338.203C477.756 340.825 487.643 344.09 498.221 347.861C508.844 351.678 520.156 356 532.251 360.829C544.346 365.704 557.314 370.992 571.156 376.74C584.998 382.535 599.438 386.72 614.522 389.341C629.606 392.008 644.597 392.928 659.451 392.146C674.305 391.318 688.423 388.467 701.805 383.639C715.188 378.856 726.914 371.774 737.077 362.576L738.825 364.324L738.733 364.186Z" fill="#FCC97E"/>
<path d="M578.388 161.429H577.376C577.146 155.45 574.893 150.3 570.616 146.023C566.339 141.746 561.234 139.631 555.256 139.631H550.749V136.182H578.388V161.429ZM577.33 136.182H623.271V378.12L579.399 366.623L577.33 136.182ZM622.259 161.429V136.182H649.897V139.631H645.391C639.413 139.631 634.262 141.746 630.031 146.023C625.8 150.3 623.501 155.404 623.271 161.429H622.259Z" fill="#FCC97E"/>
<path d="M741.828 136.182V156.922H740.816C740.816 151.863 739.022 147.724 735.435 144.459C731.848 141.24 727.526 139.631 722.467 139.631H716.949V136.182H741.828ZM937.457 205.254V292.032C937.457 310.243 933.594 326.154 925.868 339.721C918.142 353.333 907.105 363.91 892.711 371.498C878.317 379.086 861.44 382.902 842.08 382.902C821.109 382.902 803.037 379.178 787.815 371.682C772.593 364.186 760.958 353.655 752.911 340.043C744.863 326.476 740.816 310.565 740.816 292.354V136.136H790.252V288.215C790.252 304.816 793.195 319.302 799.082 331.765C804.968 344.227 813.246 353.839 823.961 360.645C834.676 367.451 842.539 368.692 854.542 368.692C863.234 368.692 872.247 367.589 883.422 361.151C894.597 354.712 903.242 345.607 909.359 333.834C915.475 322.062 918.51 308.357 918.51 292.722V180.651M814.073 136.182V139.631H808.555C803.496 139.631 799.174 141.24 795.587 144.459C792 147.678 790.206 151.817 790.206 156.922H789.516V136.182H814.073Z" fill="#FCC97E"/>
<path d="M1016.27 136.182V139.631H1012.13C1008.91 139.631 1005.97 140.734 1003.3 142.896C1000.63 145.103 998.976 147.862 998.286 151.174C997.596 154.531 998.148 157.796 1000.03 161.015L950.598 159.957C946.919 154.669 941.998 149.932 935.928 145.793C929.811 141.654 923.097 139.585 915.693 139.585H910.865V136.136H1016.27V136.182ZM972.073 315.347L1016.27 250.598L1027.35 265.13L972.395 349.654M983.754 136.182L1138.59 377.752H1089.52L935.376 136.182H983.754ZM1121.35 136.182L1039.44 257.128L1026.98 246.091L1096.79 136.182H1121.35ZM1073.61 353.241L1123.74 354.62C1127.42 359.909 1132.38 364.6 1138.59 368.601C1144.8 372.647 1151.52 374.671 1158.64 374.671H1163.47V378.12H1057.38V374.671H1061.89C1066.48 374.671 1070.35 372.372 1073.48 367.773C1076.6 363.174 1076.65 358.345 1073.66 353.241H1073.61ZM1144.85 136.182V139.631H1140.02C1132.89 139.631 1126.27 141.7 1120.15 145.839C1114.04 149.978 1109.02 154.715 1105.11 160.003L1080.92 161.061C1082.99 157.842 1083.64 154.531 1082.81 151.22C1081.98 147.862 1080.33 145.103 1077.8 142.942C1075.27 140.735 1072.37 139.677 1069.15 139.677H1065.01L1064.69 136.228H1144.89L1144.85 136.182Z" fill="#FCC97E"/>
<path d="M1289.48 136.182V148.276H1194.43V136.182H1289.48ZM1256.65 252.989V264.762H1134.69V252.989H1256.65ZM1288.1 366.025L1290.86 378.12H1194.43V366.025H1288.1ZM1310.55 317.279L1291.87 378.12H1231.03L1243.5 366.025C1255.45 366.025 1265.48 364.002 1273.57 359.955C1281.62 355.908 1288.33 350.206 1293.62 342.848C1298.91 335.49 1303.42 326.936 1307.1 317.279H1310.55ZM1289.48 129.974V139.999L1247.31 136.182C1252.37 136.182 1257.75 135.86 1263.41 135.17C1269.06 134.48 1274.31 133.653 1279.14 132.733C1283.96 131.813 1287.41 130.893 1289.48 129.974ZM1256.65 227.42V253.679H1232.46V252.989C1238.44 252.759 1243.4 250.552 1247.31 246.413C1251.22 242.274 1253.2 237.307 1253.2 231.559V227.42H1256.65ZM1256.65 264.072V290.331H1253.2V285.824C1253.2 280.076 1251.22 275.109 1247.31 270.97C1243.4 266.831 1238.44 264.762 1232.46 264.762V264.072H1256.65ZM1289.48 147.265V179.042H1286.03V173.523C1286.03 166.395 1283.69 160.371 1278.95 155.542C1274.22 150.714 1268.19 148.185 1260.79 147.955V147.265H1289.48Z" fill="#FCC97E"/>
<path d="M558.866 540.845V540.061C560.714 539.445 561.106 537.765 561.106 533.733V508.757C561.106 504.725 560.714 503.045 558.866 502.429V501.645H569.282V502.429C567.434 503.045 567.042 504.725 567.042 508.757V519.565H586.53V508.757C586.53 504.725 586.138 503.045 584.29 502.429V501.645H594.706V502.429C592.858 503.045 592.466 504.725 592.466 508.757V533.733C592.466 537.765 592.858 539.445 594.706 540.061V540.845H584.29V540.061C586.138 539.445 586.53 537.765 586.53 533.733V520.573H567.042V533.733C567.042 537.765 567.434 539.445 569.282 540.061V540.845H558.866ZM620.431 541.405C610.911 541.405 600.383 535.133 600.383 521.077C600.383 509.989 608.559 501.197 620.431 501.197C629.895 501.197 640.423 507.693 640.423 521.413C640.423 535.077 629.839 541.405 620.431 541.405ZM606.207 517.661C606.991 528.861 614.103 539.669 623.623 539.669C632.191 539.669 635.271 533.229 634.767 525.837C633.927 513.909 627.207 502.653 617.519 502.653C609.903 502.653 605.591 508.589 606.207 517.661ZM645.648 540.845V540.061C647.496 539.445 647.888 537.765 647.888 533.733V512.117C647.888 505.285 646.656 503.325 644.08 502.429V501.645H652.48L666.312 524.605L679.472 501.645H687.424V502.429C684.848 503.325 683.616 505.285 683.616 512.117V533.733C683.616 537.765 684.008 539.445 685.856 540.061V540.845H675.44V540.061C677.288 539.445 677.68 537.765 677.68 533.733V506.629L664.24 530.205H662.952L648.896 507.133V530.373C648.896 537.205 650.24 539.165 653.152 540.061V540.845H645.648ZM692.686 540.845V540.061C694.534 539.445 694.926 537.765 694.926 533.733V508.757C694.926 504.725 694.534 503.045 692.686 502.429V501.645H719.566L720.182 509.541L719.454 509.709C717.214 504.221 713.686 502.541 707.414 502.541H700.862V519.341H706.238C713.07 519.341 715.03 517.997 715.926 515.085H716.71V524.493H715.926C715.03 521.581 713.07 520.237 706.238 520.237H700.862V537.149C700.862 538.941 701.87 539.949 703.662 539.949H709.038C714.694 539.949 718.558 538.269 720.686 532.557L721.414 532.669L721.022 540.845H692.686ZM739.375 541.405C733.607 541.405 728.399 539.557 725.543 537.429L725.319 529.029L726.047 528.917C728.399 535.301 733.383 540.229 740.831 540.229C744.695 540.229 748.279 537.765 748.279 533.173C748.279 527.685 741.055 525.109 736.575 523.317C730.807 520.909 725.991 519.005 725.991 512.509C725.991 505.565 731.591 501.253 740.383 501.253C744.527 501.253 748.223 502.149 751.135 503.605L751.359 510.885L750.743 511.109C748.447 505.341 743.687 502.205 738.255 502.205C733.775 502.205 730.247 504.837 730.247 509.261C730.247 514.245 735.903 516.261 740.383 518.053C746.095 520.237 752.871 522.757 752.871 529.477C752.871 537.149 745.815 541.405 739.375 541.405Z" fill="#FCC97E"/>
<defs>
<linearGradient id="paint0_linear_11157_10768" x1="-23.6593" y1="311.874" x2="467.166" y2="80.8516" gradientUnits="userSpaceOnUse">
<stop stop-color="#FCC97E"/>
<stop offset="0.44" stop-color="#AF771E"/>
<stop offset="0.7" stop-color="#EAAD4A"/>
<stop offset="1" stop-color="#AF771E"/>
</linearGradient>
<linearGradient id="paint1_linear_11157_10768" x1="89.867" y1="265.48" x2="414.945" y2="391.99" gradientUnits="userSpaceOnUse">
<stop offset="0.24" stop-color="#775324"/>
<stop offset="0.81" stop-color="#F9BB56"/>
<stop offset="1" stop-color="#FFC05A"/>
</linearGradient>
<linearGradient id="paint2_linear_11157_10768" x1="119.402" y1="373.664" x2="586.489" y2="432.495" gradientUnits="userSpaceOnUse">
<stop stop-color="#172B22"/>
<stop offset="0.48" stop-color="#2B513F"/>
<stop offset="1" stop-color="#3C7A5B"/>
</linearGradient>
<linearGradient id="paint3_linear_11157_10768" x1="343.516" y1="66.0135" x2="264.907" y2="421.298" gradientUnits="userSpaceOnUse">
<stop stop-color="#8E6524"/>
<stop offset="0.15" stop-color="#916826"/>
<stop offset="0.28" stop-color="#9C712D"/>
<stop offset="0.4" stop-color="#AE8139"/>
<stop offset="0.52" stop-color="#C7974A"/>
<stop offset="0.58" stop-color="#D8A656"/>
<stop offset="1" stop-color="#D8A656"/>
</linearGradient>
</defs>
</svg>
