<svg width="316" height="316" viewBox="0 0 316 316" fill="none" xmlns="http://www.w3.org/2000/svg">
<rect width="316" height="316" fill="#FAFAFA"/>
<g clip-path="url(#clip0_11157_977)">
<mask id="mask0_11157_977" style="mask-type:luminance" maskUnits="userSpaceOnUse" x="44" y="145" width="228" height="26">
<path d="M271.504 145.301H44.4906V170.7H271.504V145.301Z" fill="white"/>
</mask>
<g mask="url(#mask0_11157_977)">
<path d="M117.192 148.646C117.203 148.808 117.168 148.971 117.091 149.114C117.015 149.258 116.899 149.378 116.758 149.459C116.506 149.628 116.242 149.778 115.969 149.91C115.703 150.038 115.455 150.148 115.335 150C115.225 149.739 115.185 149.455 115.218 149.174C115.218 148.896 115.218 148.749 115.223 148.482C115.228 148.214 115.23 147.825 115.235 147.306C115.2 146.78 115.267 146.252 115.434 145.752C115.622 145.361 115.994 145.232 116.26 145.433C116.573 145.831 116.774 146.304 116.845 146.805C117.028 147.404 117.145 148.021 117.192 148.646Z" fill="black"/>
<path d="M126.722 157.169H125.089C124.15 157.207 123.209 157.142 122.284 156.974C121.407 156.791 120.584 156.41 119.878 155.86C119.277 155.341 118.818 154.678 118.544 153.934C118.242 153.203 118.04 152.409 117.878 151.877C117.715 151.345 117.6 151.086 117.416 150.959C117.314 150.903 117.201 150.868 117.085 150.857C116.969 150.845 116.852 150.857 116.741 150.891C116.485 150.952 116.24 151.051 116.014 151.186C115.75 151.327 115.521 151.526 115.343 151.768C115.23 151.996 115.182 152.25 115.204 152.504C115.204 152.751 115.204 152.984 115.204 153.412C115.204 153.839 115.204 154.455 115.204 154.942V156.234C115.195 156.758 115.218 157.282 115.274 157.803C115.313 158.43 115.548 159.029 115.946 159.516C116.474 160.037 117.149 160.384 117.88 160.51C118.606 160.622 119.344 160.636 120.073 160.553C120.807 160.503 121.546 160.461 122.283 160.414C123.02 160.367 123.761 160.304 124.501 160.275C125.24 160.247 125.983 160.252 126.726 160.252C127.469 160.252 128.212 160.252 128.95 160.275C129.688 160.299 130.429 160.36 131.171 160.414C131.913 160.468 132.649 160.499 133.381 160.553C134.11 160.636 134.848 160.622 135.574 160.51C136.306 160.385 136.982 160.038 137.51 159.516C137.907 159.029 138.142 158.43 138.182 157.803C138.235 157.282 138.258 156.758 138.25 156.234V153.412C138.25 152.987 138.25 152.751 138.25 152.504C138.273 152.25 138.224 151.995 138.109 151.768C137.932 151.526 137.702 151.327 137.437 151.186C137.212 151.05 136.967 150.951 136.712 150.891C136.6 150.858 136.483 150.847 136.367 150.858C136.251 150.87 136.139 150.905 136.036 150.961C135.853 151.089 135.735 151.351 135.575 151.879C135.414 152.407 135.212 153.206 134.915 153.936C134.638 154.681 134.177 155.344 133.575 155.862C132.869 156.413 132.046 156.794 131.169 156.977C130.244 157.144 129.303 157.21 128.364 157.171H126.727" fill="black"/>
<path d="M136.253 148.646C136.242 148.808 136.277 148.971 136.354 149.114C136.431 149.258 136.547 149.377 136.688 149.459C136.939 149.629 137.203 149.78 137.477 149.91C137.741 150.038 137.987 150.148 138.111 150C138.22 149.739 138.26 149.455 138.229 149.174C138.229 148.896 138.229 148.749 138.221 148.482C138.214 148.214 138.214 147.825 138.211 147.306C138.243 146.78 138.176 146.253 138.012 145.752C137.821 145.361 137.448 145.232 137.185 145.433C136.872 145.831 136.671 146.304 136.601 146.805C136.417 147.404 136.3 148.021 136.253 148.646Z" fill="black"/>
<path d="M246.857 146.62C244.961 147.825 240.362 150.826 238.632 152.295C237.336 153.378 236.387 154.817 235.902 156.434C235.638 157.237 235.505 158.068 235.285 158.878C235.05 159.717 234.763 160.531 233.703 160.531C232.643 160.531 232.362 159.718 232.132 158.881C231.905 158.069 231.773 157.237 231.511 156.434C231.024 154.818 230.076 153.38 228.784 152.295C227.051 150.823 222.454 147.825 220.56 146.62C219.991 146.26 219.804 145.93 220.019 145.65C220.234 145.37 220.84 145.145 222.66 145.773C224.479 146.401 226.308 147.128 228.117 147.898C230.19 148.781 231.324 149.536 233.703 149.572C236.083 149.536 237.223 148.781 239.298 147.898C241.104 147.128 242.926 146.397 244.751 145.773C246.576 145.149 247.184 145.373 247.393 145.65C247.602 145.927 247.418 146.26 246.854 146.62" fill="black"/>
<path d="M261.052 154.121C261.386 154.121 261.868 154.081 262.054 153.674C262.119 153.549 262.157 153.411 262.167 153.271C262.176 153.13 262.157 152.988 262.109 152.855C262.051 152.675 261.968 152.503 261.863 152.345C261.612 152 261.342 151.669 261.054 151.354C260.519 150.698 259.945 150.076 259.332 149.491C259.018 149.183 258.671 148.911 258.297 148.679C257.877 148.4 257.371 148.28 256.87 148.339C256.131 148.518 255.451 148.883 254.894 149.4C253.874 150.161 252.883 150.966 251.894 151.767C249.911 153.375 247.952 155.014 246.017 156.685C245.05 157.519 244.093 158.371 243.127 159.2C242.808 159.474 242.49 159.746 242.167 160.013C242.009 160.153 241.838 160.278 241.657 160.386C241.495 160.499 241.299 160.553 241.102 160.539C240.988 160.512 240.887 160.446 240.816 160.354C240.745 160.261 240.708 160.146 240.711 160.029C240.714 159.915 240.739 159.803 240.786 159.699C240.833 159.595 240.9 159.501 240.984 159.423C242.994 157.229 245.028 155.07 247.167 153.027C249.307 150.985 251.486 149.012 253.762 147.15C257.175 144.367 258.084 144.967 261.242 147.604C263.502 149.488 265.655 151.498 267.765 153.571C268.818 154.533 269.791 155.579 270.673 156.699C271.06 157.179 271.333 157.739 271.475 158.339C271.521 158.575 271.52 158.817 271.473 159.053C271.425 159.289 271.332 159.513 271.198 159.712C271.063 159.912 270.891 160.083 270.691 160.215C270.49 160.348 270.266 160.44 270.03 160.486C269.025 160.684 267.82 159.874 267.055 159.432C265.497 158.52 263.858 157.755 262.159 157.145C260.852 156.677 259.51 156.31 258.147 156.048C257.546 155.937 256.94 155.842 256.338 155.737C255.819 155.643 255.305 155.553 254.872 155.459C254.004 155.275 253.776 155.101 253.692 154.884C253.65 154.772 253.65 154.648 253.692 154.536C253.767 154.328 253.987 154.125 255.405 154.125L261.052 154.121Z" fill="black"/>
<path d="M180.277 154.121C180.611 154.121 181.093 154.082 181.279 153.674C181.344 153.549 181.382 153.411 181.391 153.27C181.399 153.129 181.378 152.988 181.328 152.856C181.275 152.674 181.193 152.502 181.085 152.346C180.835 152 180.565 151.669 180.277 151.355C179.743 150.699 179.169 150.077 178.559 149.492C178.242 149.183 177.892 148.909 177.515 148.676C177.097 148.396 176.593 148.275 176.094 148.336C175.356 148.514 174.677 148.879 174.121 149.396C173.101 150.157 172.106 150.962 171.118 151.764C169.135 153.371 167.175 155.01 165.239 156.681C164.272 157.515 163.314 158.367 162.344 159.196C162.027 159.471 161.705 159.742 161.384 160.009C161.227 160.15 161.056 160.275 160.874 160.382C160.714 160.495 160.519 160.549 160.323 160.536C160.21 160.508 160.109 160.442 160.038 160.349C159.967 160.257 159.929 160.142 159.931 160.026C159.934 159.912 159.959 159.799 160.006 159.695C160.052 159.591 160.119 159.497 160.203 159.42C162.211 157.225 164.246 155.066 166.386 153.023C168.527 150.981 170.703 149.008 172.981 147.146C176.394 144.363 177.302 144.963 180.461 147.6C182.722 149.484 184.873 151.494 186.984 153.567C188.038 154.529 189.011 155.575 189.893 156.695C190.279 157.175 190.552 157.735 190.692 158.335C190.739 158.571 190.738 158.814 190.69 159.049C190.643 159.285 190.549 159.509 190.415 159.708C190.281 159.908 190.109 160.079 189.908 160.212C189.708 160.344 189.483 160.436 189.247 160.482C188.242 160.68 187.037 159.87 186.272 159.428C184.716 158.516 183.078 157.751 181.38 157.142C180.072 156.673 178.729 156.306 177.364 156.044C176.769 155.933 176.16 155.838 175.557 155.733C175.04 155.639 174.525 155.549 174.092 155.455C173.222 155.271 172.995 155.097 172.915 154.881C172.871 154.769 172.871 154.644 172.915 154.532C172.985 154.324 173.208 154.121 174.623 154.121L180.277 154.121Z" fill="black"/>
<path d="M205.582 155.938H205.857C207.72 155.903 209.583 156.03 211.424 156.318C212.69 156.48 213.846 157.121 214.654 158.108C215.464 159.115 215.766 159.678 216.086 160.042C216.722 160.777 217.434 160.742 217.673 160.011C217.782 159.537 217.824 159.051 217.798 158.566V147.549C217.856 146.914 217.781 146.273 217.576 145.669C217.525 145.581 217.456 145.505 217.373 145.447C217.29 145.388 217.196 145.348 217.096 145.329C216.997 145.311 216.894 145.313 216.796 145.338C216.697 145.362 216.605 145.407 216.526 145.471C216.206 145.704 216.068 146.18 215.85 147.061C215.633 147.942 215.322 149.231 214.971 150.347C214.874 150.931 214.615 151.477 214.225 151.922C213.834 152.367 213.328 152.695 212.761 152.868C210.396 153.331 207.991 153.555 205.581 153.538C203.172 153.556 200.767 153.331 198.403 152.868C197.837 152.693 197.33 152.365 196.939 151.92C196.548 151.475 196.287 150.931 196.186 150.347C195.841 149.231 195.536 147.942 195.316 147.061C195.096 146.18 194.956 145.701 194.636 145.471C194.556 145.407 194.464 145.362 194.365 145.338C194.267 145.313 194.164 145.31 194.064 145.329C193.964 145.348 193.869 145.388 193.786 145.447C193.703 145.505 193.633 145.581 193.582 145.669C193.378 146.273 193.303 146.914 193.361 147.549V158.566C193.336 159.051 193.377 159.537 193.485 160.011C193.726 160.742 194.436 160.776 195.074 160.042C195.391 159.678 195.695 159.115 196.509 158.108C197.316 157.119 198.472 156.478 199.739 156.318C201.579 156.031 203.44 155.903 205.303 155.938H205.582Z" fill="black"/>
<path d="M141.912 145.318C141.604 145.307 140.339 145.294 140.053 145.604C139.996 145.692 139.958 145.791 139.943 145.895C139.929 145.999 139.937 146.105 139.968 146.205C140.003 146.311 140.062 146.406 140.142 146.483C140.221 146.56 140.319 146.616 140.425 146.647C140.751 146.758 141.089 146.833 141.432 146.87C142.142 146.994 142.852 147.088 143.561 147.186C145.403 147.441 147.981 147.769 149.662 148.865C150.566 149.469 151.204 150.395 151.447 151.455C151.733 152.496 151.904 153.566 151.957 154.644C152.032 155.718 152.077 156.795 152.092 157.874C152.086 158.24 152.103 158.606 152.14 158.971C152.171 159.329 152.273 159.677 152.441 159.994C152.511 160.158 152.63 160.296 152.781 160.39C152.932 160.484 153.109 160.529 153.286 160.519C153.465 160.529 153.641 160.483 153.793 160.389C153.945 160.296 154.065 160.158 154.136 159.994C154.439 159.329 154.559 158.596 154.483 157.869C154.504 156.792 154.548 155.715 154.619 154.639C154.666 153.56 154.835 152.49 155.124 151.45C155.367 150.391 156.005 149.466 156.909 148.863C158.589 147.763 161.167 147.439 163.009 147.181C163.717 147.083 164.431 146.989 165.134 146.867C165.479 146.828 165.819 146.753 166.148 146.642C166.254 146.612 166.351 146.556 166.43 146.479C166.51 146.401 166.568 146.306 166.601 146.2C166.634 146.1 166.643 145.995 166.628 145.891C166.613 145.787 166.575 145.688 166.516 145.601C166.234 145.289 164.967 145.302 164.656 145.313C160.867 145.313 157.076 145.313 153.285 145.313C149.493 145.313 145.702 145.313 141.912 145.313" fill="black"/>
<path d="M84.64 157.563V148.506C84.64 148.007 84.6502 147.506 84.6757 147.01C84.7012 146.513 84.7743 145.61 85.3463 145.375C86.1113 145.066 86.3153 145.791 86.4675 146.428C86.7854 147.756 86.9392 149.107 87.156 150.452C87.2665 151.125 87.3557 151.799 87.496 152.468C87.6235 153.103 87.8887 153.822 88.5695 154.005C89.1972 154.074 89.8306 153.942 90.3775 153.626C90.964 153.396 91.5522 153.167 92.1378 152.937C93.31 152.478 94.4872 152.021 95.6602 151.566C97.8583 150.709 100.058 149.854 102.259 149.002C103.789 148.409 105.319 147.814 106.849 147.217C107.732 146.874 110.529 145.739 111.454 145.504C111.72 145.44 112.304 145.249 112.484 145.656C112.676 146.106 112.303 146.443 111.992 146.626C111.329 147.021 110.64 147.367 109.969 147.742C109.298 148.117 108.626 148.496 107.954 148.873C106.612 149.628 105.248 150.344 103.915 151.118C103.626 151.239 103.397 151.468 103.276 151.756C103.155 152.044 103.151 152.368 103.266 152.659C103.45 153.11 103.779 153.487 104.201 153.731C104.583 154.017 104.978 154.283 105.37 154.549C106.159 155.073 106.952 155.586 107.75 156.099C109.366 157.099 110.908 158.215 112.362 159.439C112.475 159.54 112.56 159.668 112.608 159.811C112.656 159.955 112.666 160.108 112.637 160.257C112.523 160.597 112.143 160.53 111.907 160.493C110.632 160.296 106.456 158.337 105.312 157.811C104.554 157.463 99.6042 155.14 98.7899 154.909C98.1698 154.761 97.5188 154.816 96.9318 155.064C95.9258 155.437 94.9594 155.908 94.0469 156.473C93.1119 156.991 92.171 157.516 91.2326 158.036C90.2942 158.556 89.3626 159.081 88.4208 159.609C87.8475 159.973 87.2336 160.268 86.5916 160.488C86.229 160.636 85.8239 160.641 85.4577 160.502C84.6757 160.157 84.6366 158.441 84.6366 157.563" fill="black"/>
<path d="M137.46 166.519H138.093C137.903 166.857 137.678 167.174 137.421 167.465C137.336 167.567 137.244 167.657 137.159 167.742C137.087 167.807 137.017 167.876 136.945 167.94C136.899 167.98 136.854 168.025 136.803 168.058C136.757 168.099 136.708 168.137 136.657 168.171C136.56 168.248 136.458 168.318 136.352 168.381C136.224 168.457 136.092 168.527 135.956 168.589C136.092 168.652 136.224 168.722 136.352 168.8C136.458 168.863 136.559 168.931 136.657 169.006C136.707 169.041 136.753 169.08 136.803 169.115C136.852 169.15 136.899 169.2 136.945 169.24C137.017 169.307 137.087 169.369 137.159 169.435C137.244 169.52 137.336 169.618 137.421 169.715C137.679 170.005 137.904 170.322 138.093 170.661H137.46C137.048 170.012 136.475 169.481 135.798 169.119C135.087 168.86 134.324 168.772 133.573 168.864V170.661H133.025V166.519H133.573V168.314C134.324 168.407 135.087 168.32 135.798 168.059C136.475 167.696 137.047 167.166 137.46 166.519Z" fill="black"/>
<path d="M90.0459 167.146V166.551H85.767C85.6174 166.551 85.4694 166.581 85.3317 166.639C85.1941 166.698 85.0695 166.783 84.9655 166.891C84.755 167.107 84.6386 167.397 84.6416 167.698C84.6399 167.847 84.668 167.994 84.7242 168.132C84.7804 168.269 84.8636 168.394 84.9689 168.499C85.0725 168.605 85.1967 168.69 85.3339 168.747C85.4711 168.804 85.6185 168.832 85.767 168.83H88.7709C88.9526 168.829 89.1281 168.896 89.2614 169.02C89.3242 169.076 89.3744 169.145 89.4087 169.222C89.443 169.299 89.4606 169.382 89.4603 169.466C89.4599 169.551 89.4417 169.635 89.4069 169.713C89.372 169.791 89.3213 169.86 89.258 169.917C89.1238 170.036 88.9504 170.101 88.7709 170.1H84.6416V170.7H88.7845C88.9419 170.693 89.0972 170.662 89.2452 170.608C89.3962 170.551 89.5341 170.464 89.6507 170.353C89.7725 170.245 89.8709 170.113 89.9397 169.966C90.0045 169.813 90.0406 169.649 90.0459 169.483V169.454C90.0416 169.288 90.0055 169.125 89.9397 168.972C89.8747 168.821 89.7776 168.686 89.6549 168.575C89.5377 168.466 89.401 168.38 89.252 168.32C89.1019 168.267 88.9439 168.238 88.7845 168.235H85.7738C85.6798 168.237 85.5869 168.214 85.5044 168.169C85.4421 168.138 85.3873 168.094 85.3437 168.04C85.3153 168.009 85.2931 167.974 85.2783 167.935C85.2435 167.86 85.2258 167.779 85.2264 167.697C85.2264 167.604 85.2488 167.512 85.2919 167.429C85.324 167.37 85.367 167.317 85.4185 167.273C85.4501 167.246 85.4849 167.224 85.5222 167.205C85.6024 167.169 85.6891 167.148 85.7772 167.146H90.0459Z" fill="black"/>
<path d="M129.487 168.849H128.949V170.66H129.487V168.849Z" fill="black"/>
<path d="M129.487 166.552H128.949V168.265H129.487V166.552Z" fill="black"/>
<path d="M116.298 167.586C116.389 167.795 116.434 168.021 116.429 168.248V170.661H115.854V168.78H111.726V170.661H111.154V168.251C111.152 168.028 111.193 167.806 111.277 167.6C111.361 167.393 111.485 167.205 111.641 167.046C111.793 166.89 111.974 166.765 112.174 166.68C112.374 166.595 112.59 166.551 112.808 166.551H114.78C115.001 166.552 115.219 166.596 115.422 166.68C115.619 166.766 115.798 166.886 115.953 167.035C116.104 167.193 116.221 167.38 116.298 167.585M111.728 168.201H115.854C115.849 168.065 115.82 167.932 115.769 167.806C115.715 167.674 115.635 167.555 115.534 167.454C115.435 167.357 115.32 167.277 115.194 167.221C115.063 167.163 114.923 167.133 114.78 167.13H112.797C112.655 167.133 112.515 167.163 112.385 167.221C112.256 167.276 112.14 167.358 112.045 167.462C111.944 167.562 111.864 167.682 111.81 167.814C111.763 167.938 111.734 168.068 111.725 168.201" fill="black"/>
<path d="M106.567 167.146C106.662 167.148 106.756 167.167 106.844 167.201C106.929 167.235 107.008 167.283 107.076 167.345C107.14 167.404 107.192 167.475 107.229 167.555C107.265 167.635 107.284 167.722 107.285 167.81C107.284 167.897 107.266 167.983 107.234 168.065C107.159 168.227 107.023 168.355 106.856 168.42C106.77 168.451 106.68 168.469 106.588 168.475H102.904V167.146H106.567ZM106.766 169.051C106.903 169.034 107.035 168.994 107.16 168.935C107.281 168.878 107.392 168.8 107.488 168.706C107.608 168.591 107.705 168.454 107.775 168.303C107.841 168.147 107.875 167.98 107.875 167.811C107.877 167.6 107.822 167.391 107.716 167.208C107.615 167.024 107.469 166.869 107.291 166.759C107.185 166.692 107.071 166.64 106.951 166.606C106.826 166.571 106.697 166.553 106.567 166.551H102.317V170.696H102.904V169.07H106.049C106.448 169.612 106.843 170.156 107.239 170.696H107.957C107.558 170.145 107.164 169.599 106.766 169.051Z" fill="black"/>
<path d="M94.0642 168.342V168.336C94.0576 168.162 94.0865 167.988 94.1492 167.826C94.2001 167.692 94.2799 167.571 94.383 167.471C94.4788 167.369 94.5945 167.287 94.723 167.231C94.8554 167.174 94.9978 167.143 95.142 167.142H98.5845V166.551H95.1403C94.9215 166.552 94.7052 166.598 94.504 166.684C94.3028 166.769 94.1207 166.895 93.9682 167.051C93.653 167.376 93.4773 167.811 93.4786 168.264V169.006C93.479 169.451 93.6549 169.879 93.9682 170.196C94.1203 170.353 94.3024 170.478 94.5037 170.564C94.705 170.65 94.9215 170.694 95.1403 170.695H98.5845V170.1H95.1437C95.0001 170.096 94.8583 170.067 94.7247 170.015C94.5986 169.958 94.4835 169.88 94.3847 169.783C94.2862 169.683 94.207 169.566 94.1509 169.437C94.0922 169.279 94.0634 169.111 94.0659 168.942H98.5845V168.347L94.0642 168.342Z" fill="black"/>
<path d="M124.973 170.66H125.552V167.033C125.553 166.931 125.522 166.832 125.462 166.75C125.402 166.668 125.317 166.607 125.22 166.577C125.123 166.547 125.019 166.549 124.923 166.583C124.828 166.617 124.746 166.681 124.689 166.766C124.05 167.713 123.412 168.662 122.776 169.611C122.133 168.66 121.493 167.711 120.854 166.765C120.798 166.68 120.716 166.616 120.621 166.582C120.525 166.547 120.421 166.545 120.324 166.575C120.227 166.605 120.142 166.666 120.083 166.749C120.024 166.831 119.993 166.93 119.995 167.032V170.66H120.566V167.39C121.303 168.478 122.039 169.568 122.776 170.66C123.503 169.569 124.24 168.478 124.973 167.39V170.66Z" fill="black"/>
<path d="M67.9724 153.479L67.9512 153.473L67.9282 153.455C67.8168 153.393 67.6894 153.367 67.5627 153.379H61.9281L61.6535 153.36C61.2285 153.36 61.2285 153.573 61.2285 153.646C61.2285 153.773 61.2787 153.816 61.3135 153.835C61.4595 153.866 61.6089 153.879 61.7581 153.873C62.6931 153.873 63.2736 154.029 63.5116 154.346C63.8323 154.986 63.9613 155.704 63.8831 156.415C63.9599 157.41 63.6513 158.397 63.0212 159.171C62.6502 159.509 62.2132 159.767 61.7378 159.928C61.2623 160.089 60.7587 160.149 60.2587 160.106C60.2587 160.106 60.1575 160.106 60.1176 160.106C59.5279 160.083 58.9616 159.87 58.5026 159.499C57.7962 159.004 57.6526 158.923 56.1107 156.805C55.3126 155.644 54.575 154.443 53.9007 153.206C53.7307 152.904 53.5947 152.665 53.5386 152.579C52.8008 151.436 51.0702 148.341 50.5576 147.417L50.5398 147.39C50.5194 147.341 50.0162 146.186 49.3651 146.186H45.189C44.6136 146.186 44.5634 146.558 44.5634 146.671C44.5644 146.763 44.5946 146.852 44.6497 146.925C44.7047 146.999 44.7816 147.053 44.8694 147.08C44.9806 147.107 45.0948 147.121 45.2094 147.121C45.6108 147.116 46.0119 147.146 46.4079 147.212C46.678 147.272 46.9299 147.396 47.1423 147.574V157.828C47.1234 158.109 47.0396 158.381 46.8975 158.624C46.6701 158.848 46.4006 159.026 46.1043 159.147C45.8081 159.267 45.491 159.328 45.1712 159.326C45.0379 159.322 44.9052 159.345 44.781 159.394C44.6916 159.421 44.6141 159.478 44.5616 159.555C44.509 159.633 44.4845 159.726 44.492 159.819C44.492 159.954 44.5524 160.266 45.1117 160.266H50.261C50.8016 160.266 50.8483 159.894 50.8483 159.78C50.8483 159.64 50.7863 159.31 50.2227 159.31C50.1224 159.31 50.0162 159.321 49.9159 159.329C49.6213 159.351 49.3257 159.302 49.0538 159.187C48.7818 159.071 48.5415 158.892 48.3527 158.665C48.1749 158.425 48.0787 158.134 48.0782 157.836L48.113 148.571L52.618 155.456C52.6597 155.524 52.703 155.604 52.7659 155.692L52.7991 155.748L52.822 155.783C53.7443 157.218 55.8812 160.601 59.979 160.601H60.1592C61.1182 160.508 62.0687 160.343 63.0025 160.105C63.697 159.852 64.4183 159.679 65.1521 159.59C65.3343 159.596 65.5138 159.635 65.6817 159.706C65.7838 159.756 65.8909 159.794 66.0013 159.82C66.1305 159.82 66.1543 159.729 66.1543 159.65C66.1536 159.615 66.1424 159.58 66.122 159.551L66.0982 159.528L66.0931 159.502C66.0389 159.372 65.9974 159.237 65.969 159.1C65.9177 158.785 65.8823 158.469 65.8627 158.151C65.8474 157.678 65.8313 157.03 65.8313 156.271C65.7562 155.602 65.8876 154.925 66.2078 154.333C66.3445 154.177 66.5153 154.055 66.707 153.976C66.8987 153.897 67.106 153.864 67.3128 153.878H67.5185C67.6449 153.884 67.7714 153.87 67.8934 153.836C67.9356 153.827 67.9734 153.803 68.0008 153.77C68.0282 153.736 68.0437 153.694 68.0447 153.651C68.0477 153.619 68.0424 153.586 68.0293 153.556C68.0162 153.527 67.9957 153.501 67.9699 153.481" fill="black"/>
<path fill-rule="evenodd" clip-rule="evenodd" d="M57.6177 157.881C57.6055 157.883 57.5932 157.883 57.5811 157.881C57.4264 157.849 57.3355 157.724 56.8484 157.031C56.7354 156.861 56.6104 156.682 56.4804 156.493C55.5522 155.124 54.1565 153.066 54.1412 152.335C54.2415 149.689 54.9742 147.82 56.3801 146.632C57.3594 145.769 58.6216 145.295 59.9271 145.301C60.3238 145.304 60.7194 145.341 61.1095 145.414C61.605 145.513 62.091 145.656 62.5621 145.839C62.8681 145.958 63.5821 146.212 63.8074 146.292L63.9179 146.332C64.0239 146.376 64.1372 146.4 64.2519 146.402C64.5605 146.402 64.6769 146.164 64.79 145.876C64.9302 145.543 65.0229 145.422 65.1597 145.404C65.2745 145.43 65.3204 145.565 65.3297 145.675V145.694L65.3161 146.029V146.438C65.294 147.599 65.2558 150.012 65.2413 150.125C65.2432 150.15 65.2406 150.176 65.2337 150.201C65.2195 150.228 65.1964 150.25 65.1682 150.261C65.1326 150.27 65.0961 150.275 65.0594 150.274C64.9744 150.274 64.9302 150.232 64.9039 150.125C64.8692 149.993 64.8436 149.859 64.8274 149.723C64.7952 149.371 64.7312 149.022 64.6361 148.68C64.6004 148.587 64.5741 148.498 64.5511 148.42L64.5358 148.369C64.4257 147.912 64.1609 147.506 63.7861 147.222C63.0685 146.576 62.1857 146.142 61.2361 145.969C61.0054 145.928 60.7717 145.907 60.5374 145.905C59.8977 145.903 59.2674 146.06 58.7035 146.362C58.1396 146.664 57.6598 147.102 57.3074 147.636C56.4596 149.053 55.995 150.666 55.9593 152.318C55.9483 152.447 55.9398 152.607 55.9398 152.795C55.9392 153.443 56.0107 154.088 56.1531 154.72C56.4696 155.825 56.96 156.873 57.6058 157.825L57.6355 157.877H57.6253L57.6177 157.881Z" fill="black"/>
<path d="M76.4858 145.301H75.9988V160.604H76.4858V145.301Z" fill="black"/>
</g>
</g>
<defs>
<clipPath id="clip0_11157_977">
<rect width="227.014" height="25.3988" fill="white" transform="translate(44.4931 145.301)"/>
</clipPath>
</defs>
</svg>
