<svg width="92" height="32" viewBox="0 0 92 32" fill="none" xmlns="http://www.w3.org/2000/svg">
<path d="M11.9099 1.64062H27.1275L15.9396 20.4902H0.721863L11.9099 1.64062Z" fill="#222222"/>
<path d="M12.5762 22.2371L8.24284 29.538H24.1823L35.3704 10.6885H23.606L16.7514 22.2371H12.5762Z" fill="#222222"/>
<path d="M41.7538 24.7998V24.5598H41.7751C42.2846 24.5598 42.6951 24.4078 43.0065 24.1038C43.3178 23.7998 43.4735 23.3598 43.4735 22.7838V8.9598C43.4735 8.3838 43.3178 7.9198 43.0065 7.5678C42.6951 7.2158 42.2846 7.0398 41.7751 7.0398H41.7538V6.7998H48.5265V7.0398H48.4415C47.932 7.0398 47.5215 7.2158 47.2102 7.5678C46.8988 7.9198 46.7431 8.3838 46.7431 8.9598V22.8798C46.7431 23.3918 46.8492 23.7918 47.0615 24.0798C47.288 24.3518 47.6772 24.4878 48.2292 24.4878H48.6751C49.9348 24.4878 50.9963 24.0478 51.8597 23.1678C52.7231 22.2878 53.268 21.0478 53.4945 19.4478H53.7068L53.0698 24.7998H41.7538ZM56.7287 25.1358C55.8653 25.1358 55.1718 24.8718 54.6481 24.3438C54.1244 23.8158 53.8625 23.1198 53.8625 22.2558C53.8625 21.8878 53.9191 21.5438 54.0324 21.2238C54.1456 20.8878 54.3579 20.5598 54.6693 20.2398C54.9948 19.9198 55.4407 19.5918 56.0068 19.2558C56.573 18.9038 57.3231 18.5358 58.2573 18.1518L60.2318 17.3358V15.5358C60.2318 14.6238 60.1044 13.9038 59.8496 13.3758C59.5948 12.8318 59.241 12.5598 58.7881 12.5598C58.2502 12.5758 57.7902 12.9758 57.4081 13.7598C57.0401 14.5438 56.7924 15.6318 56.665 17.0238L54.3721 15.5358C54.6127 14.8798 54.9807 14.3038 55.4761 13.8078C55.9715 13.3118 56.5376 12.9278 57.1745 12.6558C57.8256 12.3838 58.505 12.2478 59.2127 12.2478C60.4158 12.2478 61.3924 12.6318 62.1425 13.3998C62.9068 14.1518 63.289 15.1838 63.289 16.4958V22.2798C63.289 23.2078 63.565 23.6718 64.117 23.6718C64.4425 23.6718 64.761 23.4718 65.0724 23.0718L65.2422 23.2398C64.8742 23.7998 64.4284 24.2558 63.9047 24.6078C63.381 24.9598 62.8715 25.1358 62.3761 25.1358C61.8382 25.1358 61.3711 24.9278 60.9748 24.5118C60.5927 24.0958 60.3521 23.5438 60.253 22.8558C59.5595 23.6558 58.9508 24.2398 58.4271 24.6078C57.9176 24.9598 57.3515 25.1358 56.7287 25.1358ZM58.321 23.6478C58.6324 23.6478 58.9296 23.5598 59.2127 23.3838C59.5099 23.2078 59.8425 22.9198 60.2105 22.5198L60.2318 17.6478L59.3825 18.0078C58.6607 18.3118 58.1087 18.6238 57.7265 18.9438C57.3444 19.2478 57.0755 19.5918 56.9198 19.9758C56.7782 20.3598 56.7075 20.7998 56.7075 21.2958C56.7075 21.9838 56.8561 22.5518 57.1533 22.9998C57.4647 23.4318 57.8539 23.6478 58.321 23.6478ZM63.7693 30.1758C63.189 30.1758 62.6299 30.0478 62.0921 29.7918L62.9201 26.9838C63.2739 27.1438 63.6561 27.2798 64.0665 27.3918C64.4911 27.5038 64.9158 27.5598 65.3404 27.5598C65.8782 27.5598 66.3807 27.4318 66.8478 27.1758C67.329 26.9358 67.6899 26.4798 67.9305 25.8078L68.1641 25.1598L63.9604 14.1438C63.8188 13.7598 63.6348 13.4558 63.4084 13.2318C63.1678 12.9918 62.8422 12.8638 62.4318 12.8478V12.6078H68.5675V12.8478C68.1853 12.8958 67.8881 13.0478 67.6758 13.3038C67.4776 13.5598 67.3785 13.8878 67.3785 14.2878C67.3785 14.6398 67.4493 14.9998 67.5908 15.3678L69.7352 21.0558L71.8796 15.3678C72.0211 14.9998 72.0919 14.6398 72.0919 14.2878C72.0919 13.8878 71.9858 13.5598 71.7734 13.3038C71.5753 13.0478 71.2781 12.8958 70.8817 12.8478V12.6078H73.8116V12.8478C73.4861 12.9278 73.2101 13.1678 72.9836 13.5678C72.7571 13.9518 72.5165 14.4798 72.2618 15.1518L67.9305 26.5278C67.4776 27.7118 66.8902 28.6158 66.1684 29.2398C65.4465 29.8638 64.6468 30.1758 63.7693 30.1758ZM77.3175 25.0878C76.3409 25.0878 75.4704 24.8158 74.7061 24.2718C73.956 23.7278 73.3686 22.9758 72.944 22.0158C72.5194 21.0398 72.307 19.9278 72.307 18.6798C72.307 17.3998 72.5406 16.2798 73.0077 15.3198C73.4747 14.3598 74.1117 13.6158 74.9184 13.0878C75.7393 12.5438 76.6664 12.2718 77.6997 12.2718C78.563 12.2718 79.3273 12.4638 79.9926 12.8478C80.672 13.2318 81.2098 13.7758 81.6061 14.4798C82.0166 15.1678 82.2501 15.9678 82.3067 16.8798L82.328 17.2398H75.1944V17.3598C75.1944 19.0558 75.527 20.4158 76.1923 21.4398C76.8575 22.4478 77.7492 22.9518 78.8674 22.9518C79.5467 22.9518 80.1907 22.7678 80.7993 22.3998C81.4221 22.0158 81.9246 21.5038 82.3067 20.8638L82.4978 20.9358C82.2572 21.7518 81.8821 22.4718 81.3726 23.0958C80.863 23.7198 80.2615 24.2078 79.568 24.5598C78.8744 24.9118 78.1243 25.0878 77.3175 25.0878ZM75.2157 16.8798H79.5255C79.5255 15.6158 79.3415 14.5918 78.9735 13.8078C78.6197 13.0238 78.1172 12.6318 77.4661 12.6318C76.8433 12.6318 76.3267 13.0158 75.9163 13.7838C75.5058 14.5518 75.2723 15.5838 75.2157 16.8798ZM81.9607 24.7998V24.5598H81.9819C82.4914 24.5598 82.9019 24.3838 83.2133 24.0318C83.5247 23.6798 83.6804 23.2158 83.6804 22.6398V14.7678C83.6804 14.1598 83.5671 13.6878 83.3407 13.3518C83.1284 13.0158 82.6684 12.8478 81.9607 12.8478V12.6078H84.0625C84.8127 12.6078 85.3788 12.5278 85.761 12.3678C86.1431 12.1918 86.4121 11.9678 86.5677 11.6958H86.6739L86.6951 15.6318C86.8791 15.1518 87.1127 14.6478 87.3958 14.1198C87.693 13.5918 88.061 13.1518 88.4998 12.7998C88.9527 12.4318 89.4905 12.2478 90.1133 12.2478C90.3256 12.2478 90.5521 12.2718 90.7927 12.3198C91.0333 12.3678 91.2881 12.4558 91.557 12.5838L90.729 15.3918C90.2194 15.0718 89.7736 14.8478 89.3914 14.7198C89.0234 14.5918 88.6979 14.5278 88.4148 14.5278C87.9336 14.5278 87.5727 14.6958 87.3321 15.0318C87.1056 15.3678 86.9074 15.7678 86.7376 16.2318V22.6398C86.7376 23.2158 86.8933 23.6798 87.2047 24.0318C87.5161 24.3838 87.9265 24.5598 88.4361 24.5598H88.4573V24.7998H81.9607Z" fill="#222222"/>
</svg>
