<svg width="104" height="46" viewBox="0 0 104 46" fill="none" xmlns="http://www.w3.org/2000/svg">
<path d="M35.733 10.6612C33.3147 5.94092 28.401 2.70949 22.7303 2.70949C18.8647 2.70949 15.3483 4.21084 12.7387 6.66456C11.9381 7.41523 11.2227 8.25532 10.6093 9.17027C8.32817 12.1418 6.75404 16.076 6.32775 20.4907C5.76423 26.3297 7.33628 31.732 10.2413 35.3981C10.2974 35.4688 10.3535 35.5395 10.4097 35.6081C9.82328 35.3149 9.25352 34.9926 8.70455 34.6412C6.3839 33.1648 4.41051 31.1893 2.93411 28.8707C1.07718 25.9575 3.05176e-05 22.4973 3.05176e-05 18.7876C3.05176e-05 8.41128 8.41135 0 18.7877 0C26.2529 0 32.7033 4.35432 35.733 10.6633V10.6612Z" fill="url(#paint0_linear_11028_17578)"/>
<path d="M17.4206 25.6887C16.776 26.3521 16.828 27.4043 17.3458 28.4336C17.7346 29.2051 19.2776 30.1179 19.604 30.1491C19.7912 30.1658 19.9742 30.2032 20.1592 30.2198C20.1759 30.2219 20.1925 30.224 20.2091 30.224C23.3387 30.5026 26.487 29.047 28.5726 26.4103C28.635 26.3313 28.6953 26.2523 28.7556 26.1712C29.3711 25.3498 29.8848 24.4203 30.2674 23.3972C30.9869 21.4758 31.1407 19.4962 30.8163 17.6663C30.8413 17.762 30.8642 17.8576 30.8871 17.9512C31.1491 19.0679 31.2884 20.2323 31.2884 21.4301C31.2884 23.4991 30.8725 25.4725 30.1218 27.2691C30.0366 27.4729 29.9471 27.6767 29.8515 27.8763C29.8245 27.9345 29.7974 27.9907 29.7683 28.0468C29.2651 29.0845 28.6433 30.0576 27.9259 30.9455C27.2688 31.7586 26.5286 32.503 25.7197 33.1643C25.6843 33.1934 25.651 33.2204 25.6157 33.2475C24.3701 34.2497 22.9623 35.0566 21.4381 35.6284C19.7995 36.2398 18.0257 36.5766 16.173 36.5829C15.7488 36.5829 15.3308 36.5808 15.0875 36.4976C13.5965 35.7053 12.4258 34.5346 11.3653 32.9459C9.8702 30.7106 9.28588 28.1799 9.5562 25.9279C10.9058 22.7069 14.84 21.9915 17.4185 25.6846L17.4206 25.6887Z" fill="url(#paint1_linear_11028_17578)"/>
<path d="M41.2268 34.7283C38.9145 34.7637 35.7205 33.8425 32.8384 31.2578C31.2414 29.8375 29.2597 27.0407 28.7606 26.1736C28.0099 25.0091 27.0492 23.8945 25.8972 22.8985C24.1235 21.368 22.1418 20.3325 20.1933 19.8064C17.9434 19.195 15.735 19.272 13.9509 20.0622C13.4663 20.2368 13.0026 20.4697 12.5618 20.7629C12.4183 20.8627 12.2769 20.9625 12.1417 21.0707C11.8278 21.3181 11.5408 21.5926 11.2809 21.89C10.6737 22.5887 10.2162 23.408 9.91883 24.3104C9.80654 24.6515 9.71505 25.005 9.65059 25.3689C9.61316 25.5539 9.58196 25.7411 9.55909 25.9324C9.73792 25.5248 9.95626 25.1505 10.21 24.822C10.2204 24.8095 10.2287 24.797 10.2391 24.7866C10.264 24.7554 10.289 24.7201 10.3202 24.6889C10.8608 24.0214 11.5637 23.5494 12.3767 23.3456C12.4017 23.3393 12.4308 23.3331 12.4516 23.3269C12.6242 23.2894 12.7926 23.2603 12.9652 23.2478C13.1066 23.2354 13.2459 23.2291 13.3853 23.2354C13.4227 23.2354 13.4601 23.2395 13.4975 23.2416C13.535 23.2416 13.5703 23.2458 13.6078 23.2478C13.6452 23.2499 13.6826 23.2541 13.72 23.2603C13.7554 23.2645 13.7928 23.2707 13.8302 23.277C13.8677 23.2811 13.903 23.2873 13.9405 23.2936C13.9779 23.2998 14.0153 23.3061 14.0527 23.3165C14.163 23.3393 14.2711 23.3643 14.3792 23.3976C14.4167 23.408 14.452 23.4163 14.4894 23.4287C14.5269 23.4412 14.5643 23.4516 14.5996 23.4662C14.6724 23.4911 14.7431 23.5161 14.8159 23.5452C14.922 23.5889 15.028 23.6388 15.1361 23.6887C15.2048 23.724 15.2775 23.7573 15.3462 23.7989C15.3815 23.8176 15.4148 23.8363 15.4501 23.8592C15.4855 23.8779 15.5188 23.9008 15.5541 23.9216C15.5895 23.9403 15.6227 23.9632 15.6581 23.984C15.7267 24.0276 15.7995 24.0755 15.8681 24.1254C15.8993 24.1482 15.9305 24.169 15.9617 24.194C16.1114 24.3042 16.2632 24.4248 16.4088 24.5537C16.4379 24.5828 16.4691 24.6099 16.5002 24.6411C16.704 24.8261 16.8974 25.0299 17.0825 25.2482C17.1116 25.2836 17.1386 25.3169 17.1677 25.3522C17.1969 25.3876 17.2239 25.4208 17.253 25.4562C17.3133 25.531 17.3757 25.6121 17.4318 25.6912C17.9891 26.4543 19.0808 28.7022 19.6173 30.1515C20.1517 31.6009 21.5075 36.0363 22.4807 37.2153C22.959 37.8849 23.4601 38.5233 23.9987 39.0993C28.037 43.4245 32.7198 43.4245 32.7198 43.4245C36.3297 43.7156 39.8981 42.0563 42.5805 39.5214C44.477 37.7269 45.9305 35.4957 46.6437 33.2021C46.5148 33.3871 44.5456 34.6784 41.2372 34.7304L41.2268 34.7283Z" fill="url(#paint2_linear_11028_17578)"/>
<g style="mix-blend-mode:multiply" opacity="0.5">
<path d="M19.8732 37.3712C18.9479 35.7368 17.8437 32.2371 17.3696 30.9541C16.8352 29.5047 16.1178 27.8245 15.4919 26.8846C14.7557 25.7805 11.7364 24.6929 9.60705 28.4505C9.45733 27.7476 9.47397 26.1693 9.54467 25.9468C9.86906 24.7636 11.3163 23.3268 12.9633 23.2519C13.1047 23.2457 13.244 23.2332 13.3833 23.2394C13.4207 23.2394 13.4582 23.2436 13.4956 23.2457C13.533 23.2457 13.5684 23.2498 13.6058 23.2519C13.6432 23.254 13.6807 23.2581 13.7181 23.2644C13.7534 23.2685 13.7909 23.2748 13.8283 23.281C13.8657 23.2852 13.9011 23.2914 13.9385 23.2976C13.9759 23.3039 14.0134 23.3101 14.0508 23.3205C14.161 23.3434 14.2691 23.3683 14.3773 23.4016C14.4147 23.412 14.4501 23.4203 14.4875 23.4328C14.5249 23.4453 14.5623 23.4557 14.5977 23.4702C14.6705 23.4952 14.7412 23.5201 14.814 23.5493C14.92 23.5929 15.0261 23.6428 15.1342 23.6927C15.2028 23.7281 15.2756 23.7614 15.3442 23.8029C15.3796 23.8217 15.4128 23.8404 15.4482 23.8632C15.4835 23.882 15.5168 23.9048 15.5522 23.9256C15.5875 23.9443 15.6208 23.9672 15.6561 23.988C15.7247 24.0317 15.7975 24.0795 15.8662 24.1294C15.8973 24.1523 15.9285 24.1731 15.9597 24.198C16.1094 24.3082 16.2612 24.4288 16.4068 24.5578C16.4359 24.5869 16.4671 24.6139 16.4983 24.6451C16.7021 24.8302 16.8955 25.034 17.0805 25.2523C17.1097 25.2877 17.1367 25.3209 17.1658 25.3563C17.1949 25.3916 17.2219 25.4249 17.2511 25.4602C17.3114 25.5351 17.3737 25.6162 17.4299 25.6952C16.7769 26.1964 16.9163 27.6665 17.38 28.4567C17.748 29.0826 18.794 29.8749 19.6154 30.1556C20.1498 31.6049 21.5056 36.0404 22.4788 37.2194" fill="#898989"/>
</g>
<path d="M13.3823 23.2375C13.245 23.2334 13.1036 23.2375 12.9622 23.25C13.1036 23.2375 13.2429 23.2313 13.3823 23.2375Z" fill="#848484"/>
<path d="M14.0485 23.3164C14.1587 23.3392 14.2669 23.3642 14.3771 23.3975C14.269 23.3663 14.1587 23.3392 14.0485 23.3164Z" fill="#848484"/>
<path d="M25.5732 36.3105C22.6662 37.3835 20.2665 37.8805 15.3279 36.5663C15.5961 36.5809 15.8664 36.5871 16.1388 36.5871H16.1763C18.0291 36.5829 19.8028 36.2461 21.4414 35.6326C22.9656 35.0629 24.3734 34.254 25.619 33.2517C25.6543 33.2247 25.6876 33.1956 25.723 33.1685C26.5319 32.5073 27.2721 31.7628 27.9292 30.9498C28.6466 30.0619 29.2684 29.0887 29.7716 28.0511C29.8007 27.9949 29.8278 27.9367 29.8548 27.8805C29.9505 27.6809 30.0399 27.4771 30.1251 27.2734C30.8758 25.4767 31.2917 23.5034 31.2917 21.4343C31.2917 20.2366 31.1524 19.0721 30.8904 17.9555C30.8675 17.8598 30.8446 17.7641 30.8197 17.6706C30.8197 17.6664 30.8197 17.6623 30.8176 17.6602C29.5055 10.7794 22.3605 5.9738 16.1388 6.28156C15.0742 6.33354 14.0324 6.39176 13.0301 6.60179C12.9324 6.6205 12.8367 6.64337 12.739 6.66417C15.3487 4.21045 18.865 2.7091 22.7307 2.7091C28.4013 2.7091 33.315 5.94053 35.7334 10.6608C36.2033 11.6423 36.5922 12.6675 36.8895 13.7342C37.3387 15.3416 37.5778 17.0363 37.5778 18.7872C37.5778 19.2613 37.5612 19.7334 37.5258 20.1992C37.4468 21.2555 37.2805 22.2869 37.0351 23.2871C36.7835 24.306 36.4508 25.2937 36.0411 26.2399C35.2426 28.0864 34.1572 29.777 32.8409 31.2596C32.1775 32.0082 31.4539 32.7007 30.6803 33.3349C30.6699 33.3453 30.6575 33.3536 30.645 33.364C29.1332 34.595 27.426 35.5973 25.5753 36.3147" fill="url(#paint3_linear_11028_17578)"/>
<path d="M58.1755 28.6797C58.0668 29.1903 57.7735 29.7335 57.2918 30.313C56.8138 30.896 56.1583 31.4248 55.3326 31.9064C54.5069 32.3881 53.5364 32.7538 52.4209 32.9965C51.3055 33.2427 50.0597 33.2862 48.6908 33.1341C47.3219 32.982 45.848 32.5402 44.269 31.8123C43.3781 31.3958 42.4293 30.7258 41.5348 30.1391C39.4307 28.763 36.4357 26.5828 33.0279 25.9092C33.5929 25.9455 34.194 26.0215 34.8386 26.141C35.2732 26.2207 35.7295 26.3221 36.2003 26.4416C36.4249 26.5032 36.6566 26.5647 36.8956 26.6335C37.6236 26.84 38.4022 27.0971 39.2351 27.3941C40.0717 27.6946 40.9626 28.0351 41.915 28.4153C42.8675 28.7992 43.8887 29.2157 44.9788 29.6683C46.0689 30.1247 47.206 30.4542 48.3939 30.6606C49.5817 30.8707 50.7623 30.9431 51.9321 30.8815C53.1018 30.8164 54.2136 30.5918 55.2674 30.2116C56.3213 29.8349 57.2448 29.2772 58.0451 28.5529L58.1827 28.6905L58.1755 28.6797Z" fill="#FCC97E"/>
<path d="M45.5474 12.7126H45.4677C45.4496 12.2418 45.2722 11.8362 44.9354 11.4994C44.5986 11.1626 44.1966 10.996 43.7258 10.996H43.3709V10.7244H45.5474V12.7126ZM45.4641 10.7244H49.082V29.777L45.6271 28.8716L45.4641 10.7244ZM49.0023 12.7126V10.7244H51.1788V10.996H50.8239C50.3531 10.996 49.9475 11.1626 49.6143 11.4994C49.2811 11.8362 49.1001 12.2382 49.082 12.7126H49.0023Z" fill="#FCC97E"/>
<path d="M58.4188 10.724V12.3573H58.3391C58.3391 11.959 58.1979 11.633 57.9154 11.3759C57.6329 11.1224 57.2925 10.9957 56.8941 10.9957H56.4595V10.724H58.4188ZM73.8246 16.1635V22.9973C73.8246 24.4314 73.5204 25.6844 72.9119 26.7527C72.3035 27.8247 71.4344 28.6576 70.3009 29.2552C69.1673 29.8527 67.8382 30.1533 66.3136 30.1533C64.6622 30.1533 63.239 29.86 62.0403 29.2697C60.8415 28.6794 59.9253 27.85 59.2915 26.7781C58.6578 25.7098 58.3391 24.4567 58.3391 23.0226V10.7204H62.2322V22.6967C62.2322 24.004 62.464 25.1448 62.9275 26.1262C63.3911 27.1076 64.0429 27.8645 64.8867 28.4005C65.7305 28.9365 66.3498 29.0343 67.295 29.0343C67.9795 29.0343 68.6893 28.9474 69.5693 28.4403C70.4493 27.9333 71.1302 27.2163 71.6118 26.2892C72.0935 25.3621 72.3325 24.2829 72.3325 23.0516V14.226M64.1081 10.724V10.9957H63.6735C63.2752 10.9957 62.9348 11.1224 62.6523 11.3759C62.3698 11.6294 62.2286 11.9554 62.2286 12.3573H62.1742V10.724H64.1081Z" fill="#FCC97E"/>
<path d="M80.0301 10.724V10.9957H79.7042C79.4507 10.9957 79.2189 11.0826 79.0089 11.2528C78.7988 11.4266 78.6684 11.6439 78.6141 11.9047C78.5598 12.169 78.6033 12.4261 78.7517 12.6796L74.8586 12.5964C74.5689 12.1799 74.1814 11.8069 73.7034 11.4809C73.2217 11.155 72.693 10.992 72.1099 10.992H71.7297V10.7204H80.0301V10.724ZM76.5499 24.8333L80.0301 19.7343L80.9029 20.8787L76.5752 27.535M77.4697 10.724L89.6633 29.7477H85.7991L73.6599 10.724H77.4697ZM88.3052 10.724L81.8554 20.2485L80.8739 19.3794L86.3713 10.724H88.3052ZM84.5461 27.8175L88.4935 27.9261C88.7832 28.3426 89.1744 28.712 89.6633 29.027C90.1522 29.3457 90.6809 29.5051 91.2422 29.5051H91.6225V29.7767H83.2677V29.5051H83.6226C83.9848 29.5051 84.289 29.324 84.5352 28.9618C84.7815 28.5997 84.7851 28.2194 84.5497 27.8175H84.5461ZM90.1558 10.724V10.9957H89.7755C89.2142 10.9957 88.6927 11.1586 88.2111 11.4846C87.7294 11.8105 87.3347 12.1835 87.0268 12.6L85.1219 12.6833C85.2849 12.4298 85.3356 12.169 85.2704 11.9083C85.2052 11.6439 85.0748 11.4266 84.8757 11.2564C84.6765 11.0826 84.4483 10.9993 84.1948 10.9993H83.8689L83.8435 10.7277H90.1594L90.1558 10.724Z" fill="#FCC97E"/>
<path d="M101.547 10.7242V11.6766H94.0613V10.7242H101.547ZM98.9612 19.9227V20.8498H89.357V19.9227H98.9612ZM101.438 28.8243L101.656 29.7768H94.0613V28.8243H101.438ZM103.206 24.9856L101.735 29.7768H96.944L97.9254 28.8243C98.867 28.8243 99.6565 28.665 100.294 28.3463C100.928 28.0276 101.456 27.5786 101.873 26.9991C102.289 26.4197 102.644 25.7461 102.934 24.9856H103.206ZM101.547 10.2353V11.0248L98.226 10.7242C98.6244 10.7242 99.0481 10.6988 99.4935 10.6445C99.939 10.5902 100.352 10.525 100.732 10.4526C101.112 10.3801 101.384 10.3077 101.547 10.2353ZM98.9612 17.9092V19.9771H97.0563V19.9227C97.5271 19.9046 97.9182 19.7308 98.226 19.4049C98.5338 19.0789 98.6896 18.6878 98.6896 18.2351V17.9092H98.9612ZM98.9612 20.7955V22.8634H98.6896V22.5085C98.6896 22.0558 98.5338 21.6647 98.226 21.3387C97.9182 21.0128 97.5271 20.8498 97.0563 20.8498V20.7955H98.9612ZM101.547 11.5969V14.0994H101.275V13.6648C101.275 13.1035 101.091 12.6291 100.718 12.2488C100.345 11.8686 99.8702 11.6694 99.2871 11.6513V11.5969H101.547Z" fill="#FCC97E"/>
<path d="M49.8303 43.4575V43.3455C50.0943 43.2575 50.1503 43.0175 50.1503 42.4415V38.8735C50.1503 38.2975 50.0943 38.0575 49.8303 37.9695V37.8575H51.3183V37.9695C51.0543 38.0575 50.9983 38.2975 50.9983 38.8735V40.4175H53.7823V38.8735C53.7823 38.2975 53.7263 38.0575 53.4623 37.9695V37.8575H54.9503V37.9695C54.6863 38.0575 54.6303 38.2975 54.6303 38.8735V42.4415C54.6303 43.0175 54.6863 43.2575 54.9503 43.3455V43.4575H53.4623V43.3455C53.7263 43.2575 53.7823 43.0175 53.7823 42.4415V40.5615H50.9983V42.4415C50.9983 43.0175 51.0543 43.2575 51.3183 43.3455V43.4575H49.8303ZM58.6253 43.5375C57.2653 43.5375 55.7613 42.6415 55.7613 40.6335C55.7613 39.0495 56.9293 37.7935 58.6253 37.7935C59.9773 37.7935 61.4813 38.7215 61.4813 40.6815C61.4813 42.6335 59.9693 43.5375 58.6253 43.5375ZM56.5933 40.1455C56.7053 41.7455 57.7213 43.2895 59.0813 43.2895C60.3053 43.2895 60.7453 42.3695 60.6733 41.3135C60.5533 39.6095 59.5933 38.0015 58.2093 38.0015C57.1213 38.0015 56.5053 38.8495 56.5933 40.1455ZM62.2278 43.4575V43.3455C62.4918 43.2575 62.5478 43.0175 62.5478 42.4415V39.3535C62.5478 38.3775 62.3718 38.0975 62.0038 37.9695V37.8575H63.2038L65.1798 41.1375L67.0598 37.8575H68.1958V37.9695C67.8278 38.0975 67.6518 38.3775 67.6518 39.3535V42.4415C67.6518 43.0175 67.7078 43.2575 67.9718 43.3455V43.4575H66.4838V43.3455C66.7478 43.2575 66.8038 43.0175 66.8038 42.4415V38.5695L64.8838 41.9375H64.6998L62.6918 38.6415V41.9615C62.6918 42.9375 62.8838 43.2175 63.2998 43.3455V43.4575H62.2278ZM68.9475 43.4575V43.3455C69.2115 43.2575 69.2675 43.0175 69.2675 42.4415V38.8735C69.2675 38.2975 69.2115 38.0575 68.9475 37.9695V37.8575H72.7875L72.8755 38.9855L72.7715 39.0095C72.4515 38.2255 71.9475 37.9855 71.0515 37.9855H70.1155V40.3855H70.8835C71.8595 40.3855 72.1395 40.1935 72.2675 39.7775H72.3795V41.1215H72.2675C72.1395 40.7055 71.8595 40.5135 70.8835 40.5135H70.1155V42.9295C70.1155 43.1855 70.2595 43.3295 70.5155 43.3295H71.2835C72.0915 43.3295 72.6435 43.0895 72.9475 42.2735L73.0515 42.2895L72.9955 43.4575H68.9475ZM75.6173 43.5375C74.7933 43.5375 74.0493 43.2735 73.6413 42.9695L73.6093 41.7695L73.7133 41.7535C74.0493 42.6655 74.7613 43.3695 75.8253 43.3695C76.3773 43.3695 76.8893 43.0175 76.8893 42.3615C76.8893 41.5775 75.8573 41.2095 75.2173 40.9535C74.3933 40.6095 73.7053 40.3375 73.7053 39.4095C73.7053 38.4175 74.5053 37.8015 75.7613 37.8015C76.3533 37.8015 76.8813 37.9295 77.2973 38.1375L77.3293 39.1775L77.2413 39.2095C76.9133 38.3855 76.2333 37.9375 75.4573 37.9375C74.8173 37.9375 74.3133 38.3135 74.3133 38.9455C74.3133 39.6575 75.1213 39.9455 75.7613 40.2015C76.5773 40.5135 77.5453 40.8735 77.5453 41.8335C77.5453 42.9295 76.5373 43.5375 75.6173 43.5375Z" fill="#FCC97E"/>
<defs>
<linearGradient id="paint0_linear_11028_17578" x1="-1.86314" y1="24.5601" x2="36.7893" y2="6.36706" gradientUnits="userSpaceOnUse">
<stop stop-color="#FCC97E"/>
<stop offset="0.44" stop-color="#AF771E"/>
<stop offset="0.7" stop-color="#EAAD4A"/>
<stop offset="1" stop-color="#AF771E"/>
</linearGradient>
<linearGradient id="paint1_linear_11028_17578" x1="7.07544" y1="20.9061" x2="32.6753" y2="30.8687" gradientUnits="userSpaceOnUse">
<stop offset="0.24" stop-color="#775324"/>
<stop offset="0.81" stop-color="#F9BB56"/>
<stop offset="1" stop-color="#FFC05A"/>
</linearGradient>
<linearGradient id="paint2_linear_11028_17578" x1="9.40313" y1="29.4258" x2="46.1863" y2="34.0588" gradientUnits="userSpaceOnUse">
<stop stop-color="#172B22"/>
<stop offset="0.48" stop-color="#2B513F"/>
<stop offset="1" stop-color="#3C7A5B"/>
</linearGradient>
<linearGradient id="paint3_linear_11028_17578" x1="27.0517" y1="5.19817" x2="20.8613" y2="33.1769" gradientUnits="userSpaceOnUse">
<stop stop-color="#8E6524"/>
<stop offset="0.15" stop-color="#916826"/>
<stop offset="0.28" stop-color="#9C712D"/>
<stop offset="0.4" stop-color="#AE8139"/>
<stop offset="0.52" stop-color="#C7974A"/>
<stop offset="0.58" stop-color="#D8A656"/>
<stop offset="1" stop-color="#D8A656"/>
</linearGradient>
</defs>
</svg>
