<svg width="92" height="32" viewBox="0 0 92 32" fill="none" xmlns="http://www.w3.org/2000/svg">
<path d="M13.8113 8.5C13.8113 12.6422 10.9719 16 7.46938 16H1.1275V8.5C1.1275 4.35786 3.96687 1 7.46938 1C10.9719 1 13.8113 4.35786 13.8113 8.5Z" fill="#222222"/>
<path d="M13.8113 23.5C13.8113 19.3578 16.6507 16 20.1532 16H26.4951V23.5C26.4951 27.6422 23.6558 31 20.1532 31C16.6507 31 13.8113 27.6422 13.8113 23.5Z" fill="#222222"/>
<path d="M1.1275 23.5C1.1275 27.6422 3.96687 31 7.46938 31H13.8113V23.5C13.8113 19.3578 10.9719 16 7.46938 16C3.96687 16 1.1275 19.3578 1.1275 23.5Z" fill="#222222"/>
<path d="M26.4951 8.5C26.4951 4.35786 23.6558 1 20.1532 1H13.8113V8.5C13.8113 12.6422 16.6507 16 20.1532 16C23.6558 16 26.4951 12.6422 26.4951 8.5Z" fill="#222222"/>
<path d="M39.6041 25.0342C38.3687 25.0342 37.2919 24.8154 36.3737 24.378C35.4555 23.9326 34.7387 23.2647 34.2234 22.374C33.7147 21.4756 33.4538 20.3467 33.4405 18.9873H36.8493C36.8823 19.542 37.0112 20.0108 37.2358 20.3936C37.467 20.7685 37.7775 21.0537 38.1672 21.249C38.5636 21.4444 39.0261 21.542 39.5545 21.542C40.0368 21.542 40.4464 21.4639 40.7833 21.3076C41.1268 21.1514 41.3911 20.9365 41.576 20.6631C41.761 20.3896 41.8535 20.0732 41.8535 19.7139C41.8535 19.3857 41.7676 19.1084 41.5958 18.8818C41.4241 18.6475 41.1632 18.4444 40.813 18.2724C40.4695 18.0928 40.0269 17.9326 39.4852 17.792L37.9294 17.3701C36.6611 17.0264 35.6602 16.4678 34.9269 15.6944C34.1936 14.9131 33.827 13.8545 33.827 12.5185C33.827 11.4404 34.0747 10.4951 34.5702 9.6826C35.0657 8.87012 35.7461 8.23732 36.6115 7.78418C37.4835 7.33105 38.481 7.10449 39.6041 7.10449C40.7469 7.10449 41.7412 7.33496 42.5867 7.7959C43.4323 8.249 44.0863 8.88964 44.5488 9.7178C45.0112 10.5381 45.2491 11.4912 45.2623 12.5772H41.8337C41.7941 11.9521 41.5827 11.4678 41.1995 11.124C40.8229 10.7724 40.2878 10.5967 39.5942 10.5967C39.1317 10.5967 38.7453 10.667 38.4348 10.8076C38.1309 10.9482 37.8997 11.1436 37.7412 11.3936C37.5892 11.6436 37.5132 11.9248 37.5132 12.2373C37.5132 12.5811 37.5991 12.874 37.7709 13.1162C37.9426 13.3584 38.1904 13.5615 38.5141 13.7256C38.8444 13.8896 39.2308 14.0303 39.6735 14.1475L40.932 14.4873C41.6586 14.6748 42.3027 14.9248 42.8642 15.2373C43.4258 15.5498 43.8981 15.9209 44.2812 16.3506C44.671 16.7803 44.965 17.2764 45.1631 17.8388C45.3614 18.4014 45.4605 19.0303 45.4605 19.7256C45.4605 20.8349 45.2259 21.7881 44.7569 22.5849C44.2945 23.374 43.6272 23.9795 42.7553 24.4014C41.8832 24.8232 40.8329 25.0342 39.6041 25.0342ZM49.6279 17.3349V24.7998H46.1002V7.33887H49.4991V14.1123H49.6279C49.8789 13.3076 50.2885 12.6787 50.8566 12.2256C51.4248 11.7647 52.125 11.5342 52.9574 11.5342C53.7303 11.5342 54.4041 11.7412 54.9789 12.1552C55.5602 12.5615 56.0094 13.1318 56.3265 13.8662C56.6436 14.6006 56.8022 15.4639 56.8022 16.456V24.7998H53.2745V17.2764C53.2745 16.5498 53.1193 15.9834 52.8088 15.5772C52.4983 15.1631 52.059 14.956 51.4908 14.956C51.1209 14.956 50.7939 15.0498 50.5098 15.2373C50.2324 15.4248 50.0143 15.6982 49.8558 16.0576C49.7038 16.4092 49.6279 16.8349 49.6279 17.3349ZM61.0092 25.0342C60.3024 25.0342 59.6715 24.8936 59.1166 24.6123C58.5683 24.3232 58.1389 23.8936 57.8284 23.3232C57.5179 22.7529 57.3626 22.0342 57.3626 21.167C57.3626 20.4404 57.4684 19.8272 57.6798 19.3272C57.8977 18.8272 58.195 18.4209 58.5715 18.1084C58.9547 17.7959 59.3941 17.5576 59.8895 17.3936C60.385 17.2216 60.9134 17.1123 61.475 17.0654C62.1026 16.9951 62.6079 16.9248 62.9911 16.8545C63.3742 16.7842 63.6517 16.6748 63.8235 16.5264C64.0018 16.378 64.091 16.1709 64.091 15.9052V15.8467C64.091 15.417 63.9655 15.0811 63.7145 14.8388C63.4634 14.5967 63.1199 14.4756 62.6839 14.4756C62.2149 14.4756 61.8383 14.5967 61.5542 14.8388C61.2768 15.0811 61.0984 15.4092 61.0191 15.8232L57.7789 15.6944C57.8713 14.8975 58.1157 14.1865 58.5121 13.5615C58.9151 12.9287 59.4667 12.4326 60.1669 12.0732C60.8738 11.7139 61.726 11.5342 62.7235 11.5342C63.4238 11.5342 64.0712 11.6318 64.6657 11.8272C65.2603 12.0224 65.7789 12.3076 66.2215 12.6826C66.6641 13.0576 67.0076 13.5147 67.2521 14.0537C67.4965 14.5928 67.6187 15.206 67.6187 15.8936V24.7998H64.2991V22.96H64.2198C64.015 23.4131 63.7607 23.792 63.4568 24.0967C63.1529 24.4014 62.7962 24.6357 62.3866 24.7998C61.9837 24.956 61.5245 25.0342 61.0092 25.0342ZM62.0893 22.292C62.4659 22.292 62.8061 22.2021 63.11 22.0224C63.4205 21.8349 63.6649 21.5811 63.8433 21.2608C64.0282 20.9404 64.1208 20.5654 64.1208 20.1357V18.9052C64.0217 18.9678 63.8994 19.0264 63.7541 19.0811C63.6154 19.128 63.4601 19.1748 63.2884 19.2216C63.1166 19.2685 62.9415 19.3076 62.7632 19.3388C62.5914 19.3701 62.4263 19.4014 62.2677 19.4326C61.9308 19.4873 61.6434 19.5849 61.4056 19.7256C61.1744 19.8584 60.9993 20.0264 60.8804 20.2295C60.7615 20.4326 60.702 20.6787 60.702 20.9678C60.702 21.3975 60.8309 21.7256 61.0885 21.9521C61.3462 22.1787 61.6798 22.292 62.0893 22.292ZM68.6848 29.6982V11.6982H72.1727V13.9482H72.2917C72.4304 13.5498 72.632 13.167 72.8958 12.7998C73.1671 12.4248 73.5073 12.1201 73.9166 11.8857C74.3326 11.6514 74.8346 11.5342 75.4231 11.5342C76.1956 11.5342 76.9161 11.7764 77.5831 12.2608C78.2501 12.7373 78.7885 13.4716 79.1985 14.4639C79.6145 15.456 79.8222 16.7216 79.8222 18.2608C79.8222 19.7451 79.6247 20.9873 79.2282 21.9873C78.8318 22.9873 78.2967 23.7373 77.623 24.2373C76.9553 24.7373 76.2125 24.9873 75.3933 24.9873C74.838 24.9873 74.3556 24.878 73.9464 24.6592C73.5364 24.4404 73.1935 24.1552 72.9161 23.8037C72.6448 23.4521 72.4372 23.0732 72.2917 22.667H72.2119V29.6982H68.6848ZM74.1743 21.7412C74.61 21.7412 74.9766 21.5967 75.2743 21.3076C75.578 21.0185 75.806 20.6123 75.9582 20.0888C76.1165 19.5654 76.1956 18.956 76.1956 18.2608C76.1956 17.5576 76.1165 16.9482 75.9582 16.4326C75.806 15.9092 75.5814 15.5029 75.2844 15.2139C74.9868 14.9248 74.6167 14.7803 74.1743 14.7803C73.7448 14.7803 73.3781 14.9209 73.0744 15.2021C72.7707 15.4834 72.5359 15.8857 72.3709 16.4092C72.2119 16.9248 72.1327 17.542 72.1327 18.2608C72.1327 18.9639 72.2119 19.5772 72.3709 20.1006C72.5359 20.6162 72.7707 21.0185 73.0744 21.3076C73.3781 21.5967 73.7448 21.7412 74.1743 21.7412ZM85.6446 25.0459C84.4824 25.0459 83.4812 24.7764 82.6424 24.2373C81.8036 23.6904 81.1589 22.9131 80.7097 21.9052C80.2673 20.8975 80.0461 19.6944 80.0461 18.2959C80.0461 16.9444 80.2707 15.7647 80.7199 14.7568C81.169 13.7412 81.8036 12.9521 82.6228 12.3896C83.4413 11.8193 84.406 11.5342 85.516 11.5342C86.3021 11.5342 87.0219 11.6826 87.676 11.9795C88.3369 12.2685 88.9052 12.6982 89.3807 13.2685C89.863 13.8311 90.2331 14.5264 90.4901 15.3545C90.7546 16.1826 90.8865 17.1396 90.8865 18.2256V19.2568H81.2651V16.8545H89.2123L87.5671 17.417C87.5671 16.8154 87.4913 16.3037 87.3391 15.8818C87.1876 15.4521 86.963 15.1201 86.6654 14.8857C86.3684 14.6514 85.9984 14.5342 85.5553 14.5342C85.1129 14.5342 84.7395 14.6514 84.4357 14.8857C84.132 15.1201 83.9006 15.4482 83.7423 15.8701C83.5834 16.2842 83.5042 16.7764 83.5042 17.3467V19.0693C83.5042 19.6787 83.5935 20.206 83.7721 20.6514C83.9568 21.0967 84.2145 21.4404 84.5446 21.6826C84.8815 21.917 85.2685 22.0342 85.7041 22.0342C86.0078 22.0342 86.2859 21.9834 86.5368 21.8818C86.7878 21.7803 87.0023 21.6318 87.1808 21.4365C87.3594 21.2334 87.4947 20.9912 87.5867 20.71L90.8175 20.8154C90.685 21.6748 90.3947 22.4209 89.9456 23.0537C89.4964 23.6865 88.9085 24.1787 88.1813 24.5303C87.4548 24.874 86.6092 25.0459 85.6446 25.0459Z" fill="#222222"/>
</svg>
